<svg viewBox="0 0 157.178 157.186">
  <g id="Bash_Logo_Colored" transform="translate(-0.3 -1.275)">
    <rect id="Rectangle_14" data-name="Rectangle 14" width="157.178" height="157.178" transform="translate(0.3 1.283)" fill="none"/>
    <g id="Group_134" data-name="Group 134" transform="translate(10.124 1.275)">
      <g id="Group_130" data-name="Group 130">
        <path id="Path_112" data-name="Path 112" d="M160.252,33.394,110.643,3.923a18.648,18.648,0,0,0-19.156,0L41.878,33.394A19.762,19.762,0,0,0,32.3,50.431v58.911a19.762,19.762,0,0,0,9.578,17.038l49.609,29.44a18.694,18.694,0,0,0,19.156,0l49.609-29.44a19.8,19.8,0,0,0,9.578-17.038V50.431A19.762,19.762,0,0,0,160.252,33.394Z" transform="translate(-32.3 -1.275)" fill="transparent"/>
      </g>
      <g id="Group_131" data-name="Group 131" transform="translate(0 0.008)">
        <path id="Path_113" data-name="Path 113" d="M160.252,33.411,110.643,3.94a18.694,18.694,0,0,0-19.156,0L41.878,33.411A19.762,19.762,0,0,0,32.3,50.449V109.36A19.762,19.762,0,0,0,41.878,126.4l49.609,29.44a18.694,18.694,0,0,0,19.156,0l49.609-29.44a19.8,19.8,0,0,0,9.578-17.038V50.449A19.762,19.762,0,0,0,160.252,33.411ZM93.237,152.829l-49.609-29.44a16.335,16.335,0,0,1-7.859-14.029V50.449a16.335,16.335,0,0,1,7.859-14.029L93.237,6.979a15.333,15.333,0,0,1,15.656,0L158.5,36.419a16.2,16.2,0,0,1,7.613,11.359c-1.658-3.5-5.342-4.482-9.67-1.934l-46.938,29.01c-5.863,3.408-10.161,7.276-10.161,14.306V147c0,4.236,1.688,6.969,4.329,7.767a14.736,14.736,0,0,1-2.609.246A15.664,15.664,0,0,1,93.237,152.829Z" transform="translate(-32.3 -1.3)" />
      </g>
      <g id="Group_132" data-name="Group 132" transform="translate(102.012 113.669)">
        <path class="bash" id="Path_114" data-name="Path 114" d="M377.555,371.625l-12.372,7.4a.89.89,0,0,0-.583.8v3.223c0,.4.276.553.583.368l12.556-7.613c.338-.184.368-.553.368-.952v-2.855C378.138,371.595,377.862,371.441,377.555,371.625Z" transform="translate(-364.6 -371.548)" fill="#fff"/>
      </g>
      <g id="Group_133" data-name="Group 133" transform="translate(79.567 86.474)">
        <path class="bash" id="Path_115" data-name="Path 115" d="M300.578,283.034c.4-.215.737.061.737.583l.031,4.267a8.109,8.109,0,0,1,4.758-.583c.307.092.43.491.307.982l-.952,3.776a1.723,1.723,0,0,1-.43.767.644.644,0,0,1-.246.184.528.528,0,0,1-.368.061,6.183,6.183,0,0,0-4.574.737,5.737,5.737,0,0,0-3.377,5.1c.031,1.934,1.013,2.548,4.451,2.579,4.574.061,6.57,2.088,6.6,6.692a16.4,16.4,0,0,1-6.078,12.4l.092,4.236a1.523,1.523,0,0,1-.737,1.289l-2.517,1.443c-.4.215-.737-.031-.737-.553l-.031-4.175c-2.149.89-4.329,1.105-5.71.553-.276-.092-.368-.491-.276-.921l.921-3.837a1.492,1.492,0,0,1,.46-.8c.092-.061.154-.123.246-.184a.465.465,0,0,1,.4-.031,6.954,6.954,0,0,0,5.249-.675,6.87,6.87,0,0,0,3.868-5.956c-.031-2.149-1.2-3.039-4.022-3.07-3.592,0-6.969-.706-7.03-6.017a15.512,15.512,0,0,1,5.833-11.788l-.031-4.267a1.549,1.549,0,0,1,.737-1.32Z" transform="translate(-291.487 -282.961)" fill="#fff"/>
      </g>
    </g>
  </g>
</svg>
