<svg viewBox="0 0 119 119">
  <g id="Group_136" data-name="Group 136" transform="translate(-1614 -6549)">
    <path id="db" d="M45.882,171.057C20.547,171.057,0,164.2,0,155.763V140.469a6.418,6.418,0,0,1,1.62-3.823c5.115,6.587,22.9,11.47,44.261,11.47s39.146-4.884,44.261-11.47a6.418,6.418,0,0,1,1.62,3.823v15.294C91.763,164.2,71.212,171.057,45.882,171.057Zm0-30.588C20.547,140.469,0,133.614,0,125.175V109.882A5.189,5.189,0,0,1,.717,107.5h0a7.967,7.967,0,0,1,.9-1.445c5.115,6.583,22.9,11.47,44.261,11.47s39.146-4.888,44.261-11.47a7.961,7.961,0,0,1,.9,1.445h0a5.189,5.189,0,0,1,.717,2.378v15.294C91.763,133.614,71.212,140.469,45.882,140.469Zm0-30.588C20.547,109.882,0,103.03,0,94.588V79.294C0,70.852,20.547,64,45.882,64s45.882,6.852,45.882,15.294V94.588C91.763,103.03,71.212,109.882,45.882,109.882Zm0-38.235c-16.892,0-30.588,3.417-30.588,7.647s13.7,7.647,30.588,7.647,30.588-3.417,30.588-7.647S62.773,71.647,45.882,71.647Z" transform="translate(1627.237 6490.943)"/>
    <rect id="Rectangle_16" data-name="Rectangle 16" width="119" height="119" transform="translate(1614 6549)" fill="none"/>
  </g>
</svg>
