<svg viewBox="0 0 216 216">
  <g id="Group_137" data-name="Group 137" transform="translate(-1373 -6484)">
    <g id="docker-vector-logo" transform="translate(1352.113 6270.1)">
      <path id="Path_132" data-name="Path 132" d="M234.4,303.4c-.6-.5-6-4.6-17.6-4.6a55.941,55.941,0,0,0-9.1.8c-2.2-15.3-14.9-22.7-15.4-23.1l-3.1-1.8-2,2.9a42.761,42.761,0,0,0-5.5,12.8,30.387,30.387,0,0,0,3.6,23.9c-5.3,3-13.9,3.7-15.7,3.8H27.6a6.7,6.7,0,0,0-6.7,6.7,101.189,101.189,0,0,0,6.2,36.5c4.9,12.8,12.2,22.3,21.6,28.1,10.6,6.5,27.9,10.2,47.4,10.2a145.378,145.378,0,0,0,26.3-2.4,108.541,108.541,0,0,0,34.4-12.5,94.157,94.157,0,0,0,23.4-19.2c11.3-12.7,18-26.9,22.9-39.5h2c12.3,0,19.9-4.9,24.1-9.1a26.633,26.633,0,0,0,6.4-9.4l.9-2.6Z" />
      <path id="Path_133" data-name="Path 133" d="M40.8,314h19a1.685,1.685,0,0,0,1.7-1.7h0v-17a1.685,1.685,0,0,0-1.7-1.7h-19a1.685,1.685,0,0,0-1.7,1.7h0v17a1.75,1.75,0,0,0,1.7,1.7h0" />
      <path id="Path_134" data-name="Path 134" d="M67,314H86a1.685,1.685,0,0,0,1.7-1.7h0v-17a1.685,1.685,0,0,0-1.7-1.7H67a1.685,1.685,0,0,0-1.7,1.7v17A1.75,1.75,0,0,0,67,314" />
      <path id="Path_135" data-name="Path 135" d="M93.7,314h19a1.685,1.685,0,0,0,1.7-1.7h0v-17a1.685,1.685,0,0,0-1.7-1.7h-19a1.685,1.685,0,0,0-1.7,1.7h0v17a1.628,1.628,0,0,0,1.7,1.7h0" />
      <path id="Path_136" data-name="Path 136" d="M120,314h19a1.685,1.685,0,0,0,1.7-1.7v-17a1.685,1.685,0,0,0-1.7-1.7H120a1.685,1.685,0,0,0-1.7,1.7h0v17A1.685,1.685,0,0,0,120,314h0"/>
      <path id="Path_137" data-name="Path 137" d="M67,289.7H86a1.752,1.752,0,0,0,1.7-1.7V271a1.685,1.685,0,0,0-1.7-1.7H67a1.685,1.685,0,0,0-1.7,1.7v17a1.828,1.828,0,0,0,1.7,1.7" />
      <path id="Path_138" data-name="Path 138" d="M93.7,289.7h19a1.752,1.752,0,0,0,1.7-1.7V271a1.685,1.685,0,0,0-1.7-1.7h-19A1.685,1.685,0,0,0,92,271h0v17a1.685,1.685,0,0,0,1.7,1.7" />
      <path id="Path_139" data-name="Path 139" d="M120,289.7h19a1.752,1.752,0,0,0,1.7-1.7V271a1.752,1.752,0,0,0-1.7-1.7H120a1.685,1.685,0,0,0-1.7,1.7h0v17a1.752,1.752,0,0,0,1.7,1.7" />
      <path id="Path_140" data-name="Path 140" d="M120,265.3h19a1.685,1.685,0,0,0,1.7-1.7v-17a1.752,1.752,0,0,0-1.7-1.7H120a1.685,1.685,0,0,0-1.7,1.7h0v17a1.752,1.752,0,0,0,1.7,1.7" />
      <path id="Path_141" data-name="Path 141" d="M146.5,314h19a1.685,1.685,0,0,0,1.7-1.7v-17a1.685,1.685,0,0,0-1.7-1.7h-19a1.685,1.685,0,0,0-1.7,1.7h0v17a1.75,1.75,0,0,0,1.7,1.7" />
    </g>
    <rect id="Rectangle_17" data-name="Rectangle 17" width="216" height="216" transform="translate(1373 6484)" fill="none"/>
  </g>
</svg>
