<svg viewBox="0 0 194.126 188.37">
  <path d="M82.534,113.549l.057.081L74.51,133.148a41.827,41.827,0,0,1-16.784-21.006l20.853-3.535.032.04a3.559,3.559,0,0,1,3.915,4.9ZM75.8,96.328a3.559,3.559,0,0,0,1.4-6.115l.016-.089L61.35,75.937a41.6,41.6,0,0,0-5.9,26.329L75.78,96.4l.016-.073Zm9.262-16.016a3.559,3.559,0,0,0,5.654-2.726l.081-.04,1.213-21.192A41.608,41.608,0,0,0,67.659,68.018L85.025,80.337l.032-.016Zm6.147,22.244,5.848,2.823,5.84-2.807,1.456-6.309L100.3,91.224H93.8l-4.044,5.039,1.448,6.3Zm12.133-25.035A3.559,3.559,0,0,0,109,80.24l.065.024,17.261-12.238a41.964,41.964,0,0,0-24.2-11.664l1.2,21.152.016.008Zm87.973,48.29-46.7,58.085a12.942,12.942,0,0,1-10.095,4.8l-74.91.024A12.942,12.942,0,0,1,49.524,183.9L2.8,125.828A12.8,12.8,0,0,1,.32,114.989L16.983,42.555a12.789,12.789,0,0,1,6.981-8.679L91.44,1.626a12.99,12.99,0,0,1,11.2,0l67.5,32.233a12.807,12.807,0,0,1,6.981,8.679L193.8,114.973a12.735,12.735,0,0,1-2.491,10.839Zm-26.6-16.638c-.34-.081-.833-.21-1.173-.275a32.532,32.532,0,0,0-3.874-.307,37.779,37.779,0,0,1-7.239-1.2,4.49,4.49,0,0,1-1.747-1.747l-1.626-.477a52.5,52.5,0,0,0-8.42-36.359c.421-.38,1.213-1.076,1.432-1.286a3.158,3.158,0,0,1,.76-2.281,37.308,37.308,0,0,1,6.01-4.222,34.319,34.319,0,0,0,3.357-1.957c.259-.194.615-.5.89-.72a4.06,4.06,0,1,0-5.031-6.317c-.275.218-.647.5-.9.712a34.634,34.634,0,0,0-2.669,2.831,38.219,38.219,0,0,1-5.444,4.926,4.512,4.512,0,0,1-2.451.267l-1.537,1.092a52.941,52.941,0,0,0-33.536-16.2l-.1-1.8a3.19,3.19,0,0,1-1.318-2.022,37.585,37.585,0,0,1,.461-7.32,34.849,34.849,0,0,0,.55-3.842c.008-.324-.008-.8-.008-1.149a4.063,4.063,0,1,0-8.081,0l.008.113c0,.332-.016.744,0,1.035a33.039,33.039,0,0,0,.542,3.842,37.566,37.566,0,0,1,.453,7.328,4.408,4.408,0,0,1-1.31,2.087l-.1,1.707a51.962,51.962,0,0,0-33.7,16.2q-.735-.508-1.456-1.035a3.175,3.175,0,0,1-2.4-.235,37.637,37.637,0,0,1-5.444-4.918,33.168,33.168,0,0,0-2.661-2.823c-.243-.21-.623-.5-.9-.712a4.8,4.8,0,0,0-2.815-1.068,3.891,3.891,0,0,0-3.219,1.424,4.285,4.285,0,0,0,.995,5.961l.057.04.841.671a32.664,32.664,0,0,0,3.349,1.957,38.354,38.354,0,0,1,6.01,4.222,4.534,4.534,0,0,1,.809,2.33L53.374,68.8a52.269,52.269,0,0,0-8.25,36.448l-1.682.485a5.464,5.464,0,0,1-1.739,1.755,37.933,37.933,0,0,1-7.239,1.189A34.665,34.665,0,0,0,30.58,109c-.3.057-.728.162-1.076.243l-.032.016-.057.016a4.054,4.054,0,1,0,1.8,7.87l.057-.008.081-.024,1.043-.235a34.761,34.761,0,0,0,3.624-1.391,38.321,38.321,0,0,1,7.037-2.071,4.49,4.49,0,0,1,2.33.817l1.755-.3a52.576,52.576,0,0,0,23.3,29.087l-.728,1.763a3.927,3.927,0,0,1,.356,2.281,39.435,39.435,0,0,1-3.656,6.576,33.96,33.96,0,0,0-2.168,3.227c-.162.3-.364.768-.518,1.084a4.06,4.06,0,1,0,7.3,3.462v-.016c.162-.315.372-.728.5-1.027a35.375,35.375,0,0,0,1.165-3.7c1.068-2.685,1.658-5.5,3.13-7.256a3.242,3.242,0,0,1,1.739-.849l.914-1.658a52.2,52.2,0,0,0,37.281.1l.857,1.553a3.2,3.2,0,0,1,2.071,1.254,37.252,37.252,0,0,1,2.766,6.795,34.069,34.069,0,0,0,1.173,3.7c.129.3.348.728.5,1.043a4.06,4.06,0,1,0,7.3-3.462c-.162-.315-.364-.777-.526-1.084a36.007,36.007,0,0,0-2.168-3.219,37.158,37.158,0,0,1-3.583-6.414,3.2,3.2,0,0,1,.307-2.378,15.587,15.587,0,0,1-.671-1.634,52.569,52.569,0,0,0,23.3-29.3c.518.081,1.424.243,1.723.307a3.2,3.2,0,0,1,2.265-.841,38.321,38.321,0,0,1,7.037,2.071,30.935,30.935,0,0,0,3.624,1.4c.291.081.712.154,1.052.226l.073.024.057.008a4.054,4.054,0,1,0,1.8-7.87ZM132.652,75.945,116.879,90.068v.04a3.559,3.559,0,0,0,1.4,6.123l.024.081,20.432,5.889a42.32,42.32,0,0,0-6.083-26.264Zm-32.46,43.072a3.557,3.557,0,0,0-6.277.008H93.9L83.642,137.565a41.77,41.77,0,0,0,26.9.024l-10.273-18.572h-.081Zm15.271-10.459a3.563,3.563,0,0,0-3.915,4.918l-.024.032,8.17,19.72a41.657,41.657,0,0,0,16.833-21.152L115.5,108.518Z" transform="translate(0 -0.356)"/>
</svg>
