<svg viewBox="0 0 142 142.114">
  <g id="Group_135" data-name="Group 135" transform="translate(-1055 -6527)">
    <g id="mongodb" transform="translate(1094 6526.797)">
      <path id="Path_118" data-name="Path 118" d="M35.053,142.317l-3.783-1.293s.462-19.286-6.46-20.67c-4.613-5.353.74-227.013,17.35-.739,0,0-5.722,2.86-6.737,7.752-1.108,4.8-.37,14.95-.37,14.95Z"/>
      <path id="Path_119" data-name="Path 119" d="M35.053,142.317l-3.783-1.293s.462-19.286-6.46-20.67c-4.613-5.353.74-227.013,17.35-.739,0,0-5.722,2.86-6.737,7.752-1.108,4.8-.37,14.95-.37,14.95Z"/>
      <path id="Path_120" data-name="Path 120" d="M37.084,123.676s33.13-21.779,25.377-67.09c-7.474-32.943-25.1-43.74-27.038-47.893A46.586,46.586,0,0,1,31.27.573l1.385,91.634c0,.093-2.861,28.054,4.43,31.47"/>
      <path id="Path_121" data-name="Path 121" d="M37.084,123.676s33.13-21.779,25.377-67.09c-7.474-32.943-25.1-43.74-27.038-47.893A46.586,46.586,0,0,1,31.27.573l1.385,91.634c0,.093-2.861,28.054,4.43,31.47"/>
      <path id="Path_122" data-name="Path 122" d="M29.333,124.875S-1.767,103.65.079,66.277C1.832,28.9,23.8,10.539,28.04,7.217,30.809,4.264,30.9,3.156,31.086.2c1.938,4.153,1.569,62.106,1.845,68.934C33.761,95.437,31.455,119.893,29.333,124.875Z"/>
      <path id="Path_123" data-name="Path 123" d="M29.333,124.875S-1.767,103.65.079,66.277C1.832,28.9,23.8,10.539,28.04,7.217,30.809,4.264,30.9,3.156,31.086.2c1.938,4.153,1.569,62.106,1.845,68.934C33.761,95.437,31.455,119.893,29.333,124.875Z"/>
    </g>
    <rect id="Rectangle_15" data-name="Rectangle 15" width="142" height="142" transform="translate(1055 6527)" fill="none"/>
  </g>
</svg>
