<svg viewBox="0 0 157.214 156.966">
  <g transform="translate(-390.896 -568.986)">
    <g transform="translate(390.896 568.986)">
      <path d="M466.114,725.883c-19.12-.695-30.954-6.364-33.965-16.273l-.35-1.152-.049-19.424c-.056-22.231-.036-22.682,1.147-26.222,2.159-6.459,7.266-10.624,15.252-12.44l1.766-.4,21.958-.1c15.732-.07,22.255-.148,23.005-.278,4.4-.758,7.281-1.893,9.989-3.931a20.964,20.964,0,0,0,7.1-11.078c.9-3.362.872-2.995.969-14.8l.09-10.979h15.816l1.536.429c8.227,2.3,14.2,10.092,16.744,21.85.978,4.522.988,4.69.99,16.226,0,11.227,0,11.325-.788,15.008a38.783,38.783,0,0,1-3.288,9.6c-3.041,6.115-7.526,10.253-13.2,12.178-3.24,1.1-.528,1.008-32.4,1.1l-28.714.082v5.221l19.04.077,19.041.077.077,9.367c.042,5.152.024,9.809-.041,10.349a11.475,11.475,0,0,1-1.5,4.209,20.671,20.671,0,0,1-4.981,5c-5.114,3.394-12.91,5.462-23.186,6.152-3.457.232-8.354.3-12.054.164Zm26.411-12.137a6.848,6.848,0,1,0-7.84-5.66,7.02,7.02,0,0,0,6.611,5.805,9.9,9.9,0,0,0,1.228-.145ZM410.71,686.04a19.9,19.9,0,0,1-11.578-7.125c-5.693-7.051-8.567-18.806-8.206-33.565.225-9.2,1.6-16.025,4.4-21.833,3.606-7.487,8.993-11.926,16.265-13.4,1.593-.324,1.673-.325,29.729-.314,15.472.006,28.245-.032,28.384-.086.22-.084.252-.427.252-2.691,0-1.427-.017-2.611-.038-2.631s-8.607-.072-19.079-.115L431.8,604.2l-.04-9.9c-.043-10.839-.052-10.713.876-12.7,3.217-6.9,12.693-11.093,27.878-12.334,1.1-.09,4.069-.2,6.6-.253,16.811-.329,29.143,2.745,35.626,8.881a23.315,23.315,0,0,1,2.08,2.255,19.559,19.559,0,0,1,2.634,5.318l.352,1.228v20.422c0,19.063-.018,20.52-.278,21.881a25.237,25.237,0,0,1-1.808,5.554c-2.319,4.6-6.591,7.912-12.255,9.5-3.677,1.033-2.007.965-26.351,1.071-24.175.1-22.715.049-26.1,1.006-6.583,1.86-11.419,6.988-13.384,14.19-.883,3.237-.864,2.935-.96,14.818l-.09,11.056-7.37.025a73.024,73.024,0,0,1-8.495-.179Zm40.247-91.861a6.845,6.845,0,0,0-.783-12.788,6.86,6.86,0,0,0-4.226,13.053,5.67,5.67,0,0,0,2.431.271A4.945,4.945,0,0,0,450.957,594.179Z" transform="translate(-390.896 -568.986)"/>
      <path d="M410.71,686.04a19.9,19.9,0,0,1-11.578-7.125c-5.693-7.051-8.567-18.806-8.206-33.565.225-9.2,1.6-16.025,4.4-21.833,3.606-7.487,8.993-11.926,16.265-13.4,1.593-.324,1.673-.325,29.729-.314,15.472.006,28.245-.032,28.384-.086.22-.084.252-.427.252-2.691,0-1.427-.017-2.611-.038-2.631s-8.607-.072-19.079-.115L431.8,604.2l-.04-9.9c-.043-10.839-.052-10.713.876-12.7,3.217-6.9,12.693-11.093,27.878-12.334,1.1-.09,4.069-.2,6.6-.253,16.811-.329,29.143,2.745,35.626,8.881a23.315,23.315,0,0,1,2.08,2.255,19.559,19.559,0,0,1,2.634,5.318l.352,1.228v20.422c0,19.063-.018,20.52-.278,21.881a25.237,25.237,0,0,1-1.808,5.554c-2.319,4.6-6.591,7.912-12.255,9.5-3.677,1.033-2.007.965-26.351,1.071-24.175.1-22.715.049-26.1,1.006-6.583,1.86-11.419,6.988-13.384,14.19-.883,3.237-.864,2.935-.96,14.818l-.09,11.056-7.37.025a73.024,73.024,0,0,1-8.495-.179Zm40.247-91.861a6.845,6.845,0,0,0-.783-12.788,6.86,6.86,0,0,0-4.226,13.053,5.67,5.67,0,0,0,2.431.271A4.945,4.945,0,0,0,450.957,594.179Z" transform="translate(-390.896 -568.986)"/>
    </g>
  </g>
</svg>
