<svg  viewBox="0 0 53.42 60.799">
  <path id="path80" d="M16.858,167.108l-10.732-3L3.738,137.395c-1.313-14.69-2.392-27.013-2.4-27.385l-.008-.677H54.75l0,.406c0,.567-4.693,53.557-4.788,54.015-.069.329-1.364.729-10.956,3.385-5.983,1.657-11,3-11.148,2.993s-5.1-1.371-11-3.024Zm18.019-10.387c3.71-1.031,6.8-1.961,6.862-2.065s.508-4.64.985-10.079.907-10.032.955-10.205c.082-.3-.549-.316-11.439-.316H20.715l.491-5.188c.27-2.854.5-5.2.505-5.2s1.7-.063,3.759-.12c3.377-.093,10.341.176,10.574.409.087.087.66,5.7.66,6.472,0,.378.051.384,3.5.384h3.5l-.082-.767c-.045-.422-.342-3.69-.658-7.264l-.576-6.5L28.9,116.235c-10.729-.037-13.486,0-13.487.18,0,.125-.079.917-.175,1.761-.231,2.041-1.989,21.767-1.989,22.311v.427h22.95l-.1.677c-.056.372-.235,2.26-.4,4.2a33.633,33.633,0,0,1-.41,3.63c-.168.161-6.919,1.965-7.34,1.961-.2,0-1.939-.437-3.874-.967l-3.519-.963-.129-1.515c-.071-.833-.179-2.022-.24-2.643l-.111-1.128H13.244l.008.677c.014,1.266.835,9.79.954,9.909.138.138,13.252,3.824,13.656,3.839.149.005,3.306-.834,7.016-1.866Z" transform="translate(-1.333 -109.333)"/>
</svg>
