<svg viewBox='0 0 195 166'>
    <path className='polygon' d="M137.664,0A15,15,0,0,1,150.6,7.4l39.94,68a15,15,0,0,1,0,15.194l-39.94,68a15,15,0,0,1-12.934,7.4H57.336A15,15,0,0,1,44.4,158.6l-39.94-68a15,15,0,0,1,0-15.194L44.4,7.4A15,15,0,0,1,57.336,0Z"/>
    <g className='icon' transform="translate(35.609 22)">
        <path d="M31.126,71.764A35.737,35.737,0,0,1,30,66.524a1.1,1.1,0,1,0-2.179.3,37.887,37.887,0,0,0,1.19,5.565,1.1,1.1,0,0,0,2.111-.622Z" transform="translate(-4.128 -0.349)" />
        <path d="M67.157,27.539c-.553-.023-1.131-.034-1.7-.034A38,38,0,0,0,27.505,65.46a1.1,1.1,0,1,0,2.2,0A35.8,35.8,0,0,1,65.46,29.705c.535,0,1.08.011,1.6.032a35.759,35.759,0,0,1,0,71.445c-.524.022-1.069.032-1.6.032A35.9,35.9,0,0,1,33.008,80.486a1.1,1.1,0,1,0-2,.926,38.1,38.1,0,0,0,34.449,22c.565,0,1.143-.011,1.7-.034a37.959,37.959,0,0,0,0-75.841Z" transform="translate(-4.159 -4.162)" />
        <path d="M125.036,54.879h-9.3a1.621,1.621,0,0,1-1.552-1.138,48.558,48.558,0,0,0-3.86-9.311,1.613,1.613,0,0,1,.295-1.91l6.579-6.578a3.846,3.846,0,0,0,0-5.429L104.647,17.973a4.055,4.055,0,0,0-.386-.34,3.84,3.84,0,0,0-5.031.34L92.653,24.55a1.725,1.725,0,0,1-.133.118,1.009,1.009,0,0,0-.145.1l-.109.058a1.484,1.484,0,0,1-.613.187,1.4,1.4,0,0,1-.911-.169,48.49,48.49,0,0,0-9.313-3.863,1.6,1.6,0,0,1-1.136-1.552V10.125a3.844,3.844,0,0,0-3.84-3.838H58.708a3.838,3.838,0,0,0-3.829,3.838v9.307a1.621,1.621,0,0,1-1.139,1.552,47.988,47.988,0,0,0-8.934,3.659l-.155.084c-.086.044-.171.089-.22.118a1.624,1.624,0,0,1-1.911-.295l-6.579-6.578a2.951,2.951,0,0,0-.4-.34,3.84,3.84,0,0,0-5.031.34L17.971,30.514a3.845,3.845,0,0,0,0,5.429l6.579,6.578a1.626,1.626,0,0,1,.3,1.907,47.787,47.787,0,0,0-3.863,9.312,1.622,1.622,0,0,1-1.553,1.14H10.124a3.844,3.844,0,0,0-3.84,3.84V76.452a3.843,3.843,0,0,0,3.84,3.84h9.307a1.619,1.619,0,0,1,1.553,1.139,48.383,48.383,0,0,0,3.86,9.31,1.626,1.626,0,0,1-.295,1.91l-6.58,6.578a3.859,3.859,0,0,0,0,5.429L30.512,117.2a3.827,3.827,0,0,0,4.979.377,3.2,3.2,0,0,0,.449-.377l6.579-6.578a1.614,1.614,0,0,1,1.878-.312c.083.047.167.092.252.136l.2.107a48.509,48.509,0,0,0,8.893,3.636,1.622,1.622,0,0,1,1.139,1.552v9.3a3.838,3.838,0,0,0,3.829,3.84H76.45a3.844,3.844,0,0,0,3.84-3.84v-9.3a1.6,1.6,0,0,1,1.139-1.552,49.131,49.131,0,0,0,9.319-3.867,1.371,1.371,0,0,1,.9-.164.352.352,0,0,0,.112.012l.268.067a1.825,1.825,0,0,1,.318.149,1.1,1.1,0,0,0,.149.107,1.963,1.963,0,0,1,.151.132l6.578,6.578a3.847,3.847,0,0,0,5.041.333,3.753,3.753,0,0,0,.376-.333L117.2,104.654a3.856,3.856,0,0,0,0-5.425l-6.583-6.583a1.612,1.612,0,0,1-.289-1.905,49.147,49.147,0,0,0,3.86-9.311,1.6,1.6,0,0,1,1.552-1.136h9.3a3.844,3.844,0,0,0,3.84-3.84V58.718a3.837,3.837,0,0,0-3.835-3.84Zm1.639,21.573a1.641,1.641,0,0,1-1.639,1.639h-9.3a3.78,3.78,0,0,0-3.662,2.712,46.872,46.872,0,0,1-3.687,8.888,3.824,3.824,0,0,0,.673,4.515l6.578,6.578a1.648,1.648,0,0,1,0,2.317l-12.554,12.541a1.919,1.919,0,0,1-.164.146,1.637,1.637,0,0,1-2.141-.146l-6.58-6.579a3.424,3.424,0,0,0-.337-.293,1.083,1.083,0,0,0-.2-.149,2.152,2.152,0,0,0-.321-.2,2.926,2.926,0,0,0-.68-.3,2.128,2.128,0,0,0-.451-.116,2.168,2.168,0,0,0-.252-.035,3.575,3.575,0,0,0-2.272.413,47.04,47.04,0,0,1-8.887,3.688,3.778,3.778,0,0,0-2.714,3.661v9.3a1.641,1.641,0,0,1-1.639,1.639H58.708a1.636,1.636,0,0,1-1.628-1.639v-9.3a3.835,3.835,0,0,0-2.712-3.661,46.247,46.247,0,0,1-8.448-3.449c-.083-.047-.167-.092-.252-.136l-.187-.1a3.769,3.769,0,0,0-1.79-.449,3.857,3.857,0,0,0-2.724,1.123l-6.579,6.578a1.151,1.151,0,0,1-.176.146,1.637,1.637,0,0,1-2.141-.146L19.532,103.106a1.651,1.651,0,0,1,0-2.321l6.58-6.578a3.843,3.843,0,0,0,.672-4.515,46.19,46.19,0,0,1-3.686-8.885,3.83,3.83,0,0,0-3.662-2.714H10.125a1.642,1.642,0,0,1-1.639-1.639V58.718a1.641,1.641,0,0,1,1.639-1.639h9.307a3.837,3.837,0,0,0,3.662-2.713,45.545,45.545,0,0,1,3.687-8.887,3.843,3.843,0,0,0-.673-4.515l-6.579-6.578a1.639,1.639,0,0,1,0-2.317L32.072,19.528a1.657,1.657,0,0,1,2.193-.109.76.76,0,0,1,.123.109l6.578,6.578a3.848,3.848,0,0,0,4.547.657l.155-.084c.086-.044.171-.089.215-.116a45.623,45.623,0,0,1,8.487-3.47,3.834,3.834,0,0,0,2.712-3.661V10.125a1.635,1.635,0,0,1,1.628-1.638H76.454a1.64,1.64,0,0,1,1.639,1.638v9.307a3.777,3.777,0,0,0,2.712,3.661,46.291,46.291,0,0,1,8.879,3.683,3.727,3.727,0,0,0,1.8.457,2.628,2.628,0,0,0,.47-.039,3.474,3.474,0,0,0,1.342-.419,2.6,2.6,0,0,0,.374-.223,1.117,1.117,0,0,0,.13-.088,5.232,5.232,0,0,0,.41-.356l6.579-6.578a1.634,1.634,0,0,1,2.132-.153,1.919,1.919,0,0,1,.174.153l12.553,12.541a1.64,1.64,0,0,1,0,2.317l-6.575,6.573a3.823,3.823,0,0,0-.678,4.519,46.36,46.36,0,0,1,3.686,8.889,3.837,3.837,0,0,0,3.662,2.711h9.3a1.642,1.642,0,0,1,1.639,1.639V76.452Z" transform="translate(-6.284 -6.287)" />
        <path d="M32.937,63.939a1.1,1.1,0,0,0,.793.762l2.509.62a28.984,28.984,0,0,0,53.295,13.7,3.507,3.507,0,0,0-1.047-4.846h0a3.509,3.509,0,0,0-4.845,1.048,21.979,21.979,0,0,1-40.139-8.1l1.583.392a1.11,1.11,0,0,0,1.057-.3,1.1,1.1,0,0,0,.264-1.068L43.164,54.9a1.1,1.1,0,0,0-1.849-.458L33.2,62.87a1.1,1.1,0,0,0-.264,1.069Zm8.642-6.6,2.186,7.579L42.459,64.6A1.1,1.1,0,0,0,41.1,65.774,24.178,24.178,0,0,0,85.491,76.419a1.305,1.305,0,1,1,2.195,1.414A26.784,26.784,0,0,1,38.394,64.409a1.1,1.1,0,0,0-.835-1.025l-1.45-.359Z" transform="translate(-3.619 -1.498)" />
        <path d="M83.159,61.054a1.1,1.1,0,0,0-.285,1.063l3.028,11.3a1.1,1.1,0,0,0,1.841.493l8.273-8.273a1.1,1.1,0,0,0-.493-1.841l-2-.536a28.989,28.989,0,0,0-54.144-13.5,3.507,3.507,0,0,0,6.087,3.484,21.976,21.976,0,0,1,40.881,8.093l-2.121-.569a1.1,1.1,0,0,0-1.065.286ZM87.3,63.871a1.1,1.1,0,0,0,1.383-1.125A24.176,24.176,0,0,0,43.553,52.151a1.306,1.306,0,0,1-2.269-1.3A26.789,26.789,0,0,1,91.334,64.109a1.1,1.1,0,0,0,.815,1.062l.963.257-5.578,5.578-2.041-7.62Z" transform="translate(-3.016 -3.396)" />
    </g>
</svg>