<svg viewBox='0 0 195 166'>
    <path className='polygon' d="M137.664,0A15,15,0,0,1,150.6,7.4l39.94,68a15,15,0,0,1,0,15.194l-39.94,68a15,15,0,0,1-12.934,7.4H57.336A15,15,0,0,1,44.4,158.6l-39.94-68a15,15,0,0,1,0-15.194L44.4,7.4A15,15,0,0,1,57.336,0Z"/>
    <g className='icon' transform="translate(44.476 36)">
        <g>
            <g transform="translate(21.305 32.608)">
                <path d="M155.569,238.6v6.519L132.4,235.07V229.5l23.169-10.042v6.564l-16.144,6.22Z" transform="translate(-132.4 -214.641)" />
                <path d="M244.334,205.512l-6.451,26.557q-.322,1.311-.563,2.073a2.506,2.506,0,0,1-.736,1.184,2.145,2.145,0,0,1-1.441.426q-2.346,0-2.348-2.026a18.056,18.056,0,0,1,.46-2.649l6.426-26.557a11.873,11.873,0,0,1,.967-2.9,1.907,1.907,0,0,1,1.8-.783,2.533,2.533,0,0,1,1.761.553,1.949,1.949,0,0,1,.611,1.52A12.79,12.79,0,0,1,244.334,205.512Z" transform="translate(-206.838 -200.837)" />
                <path d="M313.157,235.334l-23.169,10.089V238.9l16.192-6.356-16.192-6.266v-6.472l23.169,10Z" transform="translate(-249.243 -214.905)" />
            </g>
            <path d="M150.132,74.719H56.391A6.392,6.392,0,0,0,50,81.111v80.958a6.393,6.393,0,0,0,6.391,6.391h93.741a6.392,6.392,0,0,0,6.391-6.391V81.111A6.391,6.391,0,0,0,150.132,74.719ZM134.154,78.98a4.261,4.261,0,1,1-4.261,4.261A4.266,4.266,0,0,1,134.154,78.98Zm-11.717,0a4.261,4.261,0,1,1-4.261,4.261A4.265,4.265,0,0,1,122.436,78.98Zm27.7,83.089H56.391V91.763h93.741v70.306ZM145.871,87.5a4.261,4.261,0,1,1,4.261-4.261A4.266,4.266,0,0,1,145.871,87.5Z" transform="translate(-50 -74.719)" />
        </g>
    </g>
</svg>