 <svg viewBox='0 0 195 166'>
    <path className='polygon' d="M137.664,0A15,15,0,0,1,150.6,7.4l39.94,68a15,15,0,0,1,0,15.194l-39.94,68a15,15,0,0,1-12.934,7.4H57.336A15,15,0,0,1,44.4,158.6l-39.94-68a15,15,0,0,1,0-15.194L44.4,7.4A15,15,0,0,1,57.336,0Z"/>
    <g className='icon' transform="translate(43 25)">
        <path d="M102.55,62.008H99.1v-.7a6.125,6.125,0,0,0-12.25,0v.7H22.969v-.7a6.1,6.1,0,0,0-.349-2.035l26.573-9.842a8.95,8.95,0,0,0,12.812-.971l13.031,5.666a2.187,2.187,0,1,0,1.744-4.012L63.912,44.521a8.975,8.975,0,0,0-6.6-10.5V25.433a2.187,2.187,0,0,0-4.375,0v10.5a2.187,2.187,0,0,0,2.187,2.187A4.6,4.6,0,0,1,59.719,42.7l-3.065-1.332a2.188,2.188,0,1,0-1.744,4.012l2.721,1.183a4.588,4.588,0,0,1-7.1-3.845,2.187,2.187,0,1,0-4.375,0,8.925,8.925,0,0,0,.513,2.986l-27.2,10.074a6.123,6.123,0,0,0-8.75,5.533v.7H7.264A7.315,7.315,0,0,0,0,69.357v46.467a7.273,7.273,0,0,0,7.264,7.264H102.55a7.273,7.273,0,0,0,7.264-7.264V69.357A7.316,7.316,0,0,0,102.55,62.008Zm-11.33-.7a1.75,1.75,0,1,1,3.5,0v.7h-3.5v-.7Zm-76.126,0a1.75,1.75,0,0,1,3.5,0v.7h-3.5Zm90.345,54.515a2.893,2.893,0,0,1-2.889,2.889H7.264a2.893,2.893,0,0,1-2.889-2.889V69.357a2.972,2.972,0,0,1,2.889-2.974H102.55a2.972,2.972,0,0,1,2.889,2.974v46.467Z" transform="translate(0 -23.246)" />
        <g transform="translate(17.829 49.329)">
            <path d="M85.311,253.238a2.187,2.187,0,0,0-2.187,2.188v35.657a2.187,2.187,0,1,0,4.375,0V255.426A2.187,2.187,0,0,0,85.311,253.238Z" transform="translate(-83.124 -253.238)" />
        </g>
        <g transform="translate(35.11 49.329)">
            <path d="M165.884,253.238a2.187,2.187,0,0,0-2.187,2.188v35.657a2.187,2.187,0,1,0,4.375,0V255.426A2.187,2.187,0,0,0,165.884,253.238Z" transform="translate(-163.697 -253.238)" />
        </g>
        <g transform="translate(52.61 49.329)">
            <path d="M247.479,253.238a2.187,2.187,0,0,0-2.187,2.188v35.657a2.188,2.188,0,0,0,4.375,0V255.426A2.188,2.188,0,0,0,247.479,253.238Z" transform="translate(-245.291 -253.238)" />
        </g>
        <g transform="translate(70.111 49.329)">
            <path d="M329.073,253.238a2.188,2.188,0,0,0-2.187,2.188v35.657a2.188,2.188,0,0,0,4.375,0V255.426A2.188,2.188,0,0,0,329.073,253.238Z" transform="translate(-326.885 -253.238)" />
        </g>
        <g transform="translate(87.611 49.329)">
            <path d="M410.665,253.238a2.188,2.188,0,0,0-2.187,2.188v35.657a2.187,2.187,0,1,0,4.375,0V255.426A2.187,2.187,0,0,0,410.665,253.238Z" transform="translate(-408.478 -253.238)" />
        </g>
        <g transform="translate(80.063 29.312)">
            <path d="M377.862,160.75l-1.516-.657a2.187,2.187,0,1,0-1.739,4.015l1.516.657a2.187,2.187,0,1,0,1.739-4.015Z" transform="translate(-373.288 -159.913)" />
        </g>
    </g>
</svg>