<svg viewBox='0 0 195 166'>
    <path className='polygon' d="M137.664,0A15,15,0,0,1,150.6,7.4l39.94,68a15,15,0,0,1,0,15.194l-39.94,68a15,15,0,0,1-12.934,7.4H57.336A15,15,0,0,1,44.4,158.6l-39.94-68a15,15,0,0,1,0-15.194L44.4,7.4A15,15,0,0,1,57.336,0Z"/>
    <path className='icon' d="M62.476,1.97a3.029,3.029,0,0,0-.326.081H17.12A9.121,9.121,0,0,0,8,11.09V111.247a10.754,10.754,0,0,0,10.749,10.667h67.1a10.754,10.754,0,0,0,10.749-10.667V36.414a2.651,2.651,0,0,0,0-1.058v-.733a2.578,2.578,0,0,0-.733-1.873L65.9,2.784a2.579,2.579,0,0,0-1.873-.733h-.814A2.531,2.531,0,0,0,62.476,1.97ZM17.12,7.263H60.114V29a9.552,9.552,0,0,0,9.527,9.527H91.382v72.716a5.468,5.468,0,0,1-5.537,5.456h-67.1a5.468,5.468,0,0,1-5.537-5.456V11.09A3.828,3.828,0,0,1,17.12,7.263ZM65.325,9.706,88.94,33.32h-19.3A4.254,4.254,0,0,1,65.325,29ZM31.451,59.377v5.211H73.143V59.377Zm0,10.423v5.211H73.143V69.8Zm0,10.423v5.211H73.143V80.222Zm0,10.423v5.211H54.9V90.645Z" transform="translate(45.771 21.273)" />
</svg>