<svg xmlns="http://www.w3.org/2000/svg" height="40" viewBox="0 0 599.784 185.2">
  <g transform="translate(131.9 -182.8)">
    <path id="XMLID_7_" d="M123,292.6c0,11.8-7.7,17.1-15.4,17.1-9.5,0-15.4-7.1-15.4-13.6s3.5-10.3,11-12.1l15.9-3.6a19.657,19.657,0,0,0,3.9-1.3Zm12.1.4V262.7c0-15.1-11.6-26-27.5-26C92.2,236.7,80,247.9,80,262v1.1c0,3.2,2.3,5.2,6.1,5.2s6.1-1.9,6.1-5.2v-.8c0-8.2,6.8-14.7,15.4-14.7,8.9,0,15.4,6.4,15.4,15.3v3.8c0,1.1-1.6,2.2-4,2.7l-18.6,4.2C86.7,276.8,80,284.1,80,296.1c0,13.8,12.1,24.5,27.6,24.5,16.2,0,27.5-11.3,27.5-27.6m64.4-.2c0,10.4-6.2,17.1-15.7,17.1s-15.7-6.7-15.7-17.1V265c0-10.4,6.2-17.1,15.7-17.1s15.7,6.7,15.7,17.1Zm12.1.7V217.3c0-3.2-2.3-5.2-6.1-5.2s-6.1,1.9-6.1,5.2v26a25.242,25.242,0,0,0-17.1-6.4c-13.2,0-26.5,9.4-26.5,27.2v29.3c0,18.7,14.4,27.2,27.9,27.2,13.5.2,27.9-8.4,27.9-27.1m23.9,25.1c0,9.9-5,17.9-13.5,21.3-2.4,1-4.5,3.6-2.9,7.6a5.545,5.545,0,0,0,5.4,3.9,9.27,9.27,0,0,0,2.4-.4c13-4.6,20.8-16.4,20.8-31.7V241.6c0-3.2-2.3-5.2-6.1-5.2s-6.1,1.9-6.1,5.2v77Zm12.7-94v-6.1c0-3.7-2.6-6.2-6.4-6.2s-6.4,2.5-6.4,6.2v6.1c0,3.7,2.6,6.2,6.4,6.2s6.4-2.5,6.4-6.2m77.3,69.1V241.8c0-3.2-2.3-5.2-6.1-5.2s-6.1,1.9-6.1,5.2V293c0,10.4-6.2,17.1-15.7,17.1s-15.7-6.7-15.7-17.1V241.8c0-3.2-2.3-5.2-6.1-5.2s-6.1,1.9-6.1,5.2v51.9c0,18.7,14.4,27.2,27.9,27.2,13.5.1,27.9-8.4,27.9-27.2m33-35.1c0-6.6,5.6-11.2,13.6-11.2,8.3,0,14.6,5.3,14.6,12.4v.4c0,3.2,2.3,5.2,6.1,5.2s6.1-1.9,6.1-5.2v-1.1c0-12.7-11.8-22.7-26.8-22.7-14.7,0-25.7,9.6-25.7,22.3,0,12.2,7.8,20.2,23.9,24.2,12.2,3,17.4,7.4,17.4,14.8,0,7.2-5.4,11.6-14.2,11.6-8.1,0-15-5.5-15-12.1v-.6c0-3.2-2.3-5.2-6.1-5.2s-6.1,1.9-6.1,5.2v.6c0,12.9,11.9,23,27.1,23,15.8,0,26.3-9.1,26.3-22.6,0-13.2-7.9-21.1-25.6-25.5-10.6-2.5-15.6-6.8-15.6-13.5m80.9,39.5V249.9h22.1c3,0,4.7-2,4.7-5.5,0-4-2.4-5.5-4.7-5.5H439.4V217.4c0-3.2-2.3-5.2-6.1-5.2s-6.1,1.9-6.1,5.2v21.5H416.5c-3,0-4.7,2-4.7,5.5,0,3.4,1.8,5.5,4.7,5.5h10.7v48.8c0,13.3,9.8,22.6,23.9,22.6a25.11,25.11,0,0,0,14.3-4.2c2.7-2.1,3.3-5.2,1.3-7.9-1.6-2.3-3.3-2.7-4.5-2.7a5.576,5.576,0,0,0-3.1,1.1,12.759,12.759,0,0,1-8.1,2.7c-8.5,0-11.6-6.3-11.6-12.2"/>
    <path id="XMLID_2_" d="M-4.5,296.7-11,292c-13.1-9.5-25-17.5-35.6-23.8l-2.3-1.6,15.4-34.7Zm9.2,23,10.1-10.1-40.5-90.5H-40.9L-59.1,261l-2-1c-10.9-5.4-19.3-8-25.6-8-8.2,0-11.9,4.5-13.4,7.1-4.5,8-1.9,19.2,7.8,34.2,3.6,5.5,7.4,10.6,10.2,14.1h14.6l6-13.6-6.3-14.2-7.4,16.2-2.5-3.2c-1.6-2.2-3.2-4.4-4.5-6.5-8-12.2-9.2-18.5-7.4-20.8,1.7-2.1,11.7.7,22.7,6.1a116.973,116.973,0,0,1,18.3,10.3q6.6,4.05,13.8,9c17.7,11.9,33.6,24.4,39.5,29m36.7-44.3a80.875,80.875,0,0,1-80.7,80.8A80.81,80.81,0,0,1-120,275.4a80.875,80.875,0,0,1,80.7-80.8,80.875,80.875,0,0,1,80.7,80.8m11.9,0a92.717,92.717,0,0,0-92.6-92.6,92.717,92.717,0,0,0-92.6,92.6A92.717,92.717,0,0,0-39.3,368a92.717,92.717,0,0,0,92.6-92.6"/>
  </g>
</svg>