<svg height="60" viewBox="0 0 196.51 119.472">
    <path
        d="M51.537-287.626c-.366.208-1.6.747-2.741,1.246-1.142.457-3.2,1.412-4.569,2.118a10.333,10.333,0,0,1-4.569,1.246c-1.645,0-2.513.291-4.341,1.578a21.938,21.938,0,0,0-3.655,3.28,5.944,5.944,0,0,1-3.427,2.242c-3.792,1-10.509,7.931-10.509,10.837,0,1.536-.594,2.574-2.787,4.858a18.846,18.846,0,0,0-3.2,5.19c-1.919,4.443-2.376,11.211-1.1,14.989a6.551,6.551,0,0,1,.32,4.733c-.96,4.235-.731,5.938,1.279,9.55a16.556,16.556,0,0,1,1.828,4.069,7.622,7.622,0,0,0,2.467,4.65,3.919,3.919,0,0,1,1.188,1.495c0,.623,3.884,3.945,4.569,3.945s.594-.208-1.325-2.7c-2.148-2.782-3.655-6.1-5.346-11.667-1.1-3.7-1.234-4.816-1.234-11.169,0-5.9.137-7.681,1.005-10.8,4.661-17.314,17.363-29.189,36.005-33.715,3.884-.955,5.3-1.08,11.012-1.038,9.5.083,13.89.955,21.795,4.443a57.743,57.743,0,0,1,16.906,11.5c2.7,2.491,4.98,4.443,5.117,4.318.548-.5-2.467-4.983-4.067-6.021a5.284,5.284,0,0,1-1.919-1.952,7.881,7.881,0,0,0-2.422-2.491c-1.234-.913-3.564-2.74-5.209-4.152-3.016-2.491-5.3-3.488-8-3.488-.914,0-1.873-.54-3.381-1.827a22.978,22.978,0,0,0-4.569-3.031c-2.285-1.038-2.97-1.121-7.768-1.163-5.209,0-7.768-.374-7.768-1.08,0-.208-1.142-.374-2.513-.374s-2.513.166-2.513.415c0,.208-.594.415-1.371.415-.731,0-1.371-.208-1.371-.415C53.364-288.083,52.5-288.083,51.537-287.626Z"
        transform="translate(-9.921 288)"
    />
    <path
        d="M106.64-254.186a1.92,1.92,0,0,0-.64,1.868,2.188,2.188,0,0,1-.274,1.661c-.685.747-.228,1.7,1.142,2.284,1.645.664,2.239.581,3.838-.664,1.325-1,1.508-1.038,1.919-.415a3.816,3.816,0,0,0,1.325,1.163c2.148,1.038,5.437-1.785,3.884-3.322a2.643,2.643,0,0,1-.594-1.91c.091-1.08-.091-1.246-1.142-1.37a3.432,3.432,0,0,0-3.792,2.242c-.731,1.619-1.782,1.536-1.325-.083a1.767,1.767,0,0,0-.274-1.619C109.929-255.224,107.69-255.141,106.64-254.186Zm2.193,1.246c-.685.208-1.005-.249-.64-.789.274-.374.457-.374.731.042C109.153-253.356,109.107-253.065,108.833-252.941Zm6.625.083a.493.493,0,0,1-.685.125.4.4,0,0,1-.137-.623.493.493,0,0,1,.685-.125A.4.4,0,0,1,115.458-252.858Zm.5,2.035c.457.664-.731,1.785-1.279,1.287-.5-.457-.091-1.7.548-1.7A1.086,1.086,0,0,1,115.961-250.823Zm-7.037.457c1.051.5.731,1.2-.548,1.2a.77.77,0,0,1-.868-.83C107.508-250.948,107.69-250.989,108.924-250.366Z"
        transform="translate(-61.78 268.677)"
    />
    <path
        d="M135.94-254.051a3.548,3.548,0,0,0,.183,5.232,4.436,4.436,0,0,0,1.782.872,4.436,4.436,0,0,0,1.782-.872c1.234-.872,1.6-2.574.685-3.114-.274-.125-.366-.664-.228-1.121C140.692-255.048,137.677-255.754,135.94-254.051Zm2.422,1.121a1,1,0,0,1-.731.415.427.427,0,0,1-.411-.415c0-.249.32-.415.731-.415C138.316-253.345,138.5-253.179,138.362-252.93Zm0,2.7c0,1.08-.96,1.246-1.279.249a1.6,1.6,0,0,1,.046-1.08C137.631-251.477,138.362-250.979,138.362-250.231Z"
        transform="translate(-77.785 268.708)"
    />
    <path
        d="M94.81-253.087c.822,2.325.777,3.7,0,4.235-1.188.789-.5,1.37,1.6,1.37,1.782,0,2.513-.706,1.371-1.329a5.461,5.461,0,0,1-.457-2.74V-254H95.907C94.627-254,94.49-253.917,94.81-253.087Z"
        transform="translate(-55.708 268.117)"
    />
    <path
        d="M75.249-221.3c-1.508.955-3.061,1.993-3.473,2.284a7.339,7.339,0,0,1-2.285,1.038c-1.828.581-3.244,1.578-2.879,2.076a9.364,9.364,0,0,0,3.518.415c1.828.042,2.7.166,1.965.249a8.434,8.434,0,0,0-2.285.747,11.308,11.308,0,0,1-2.924.83,8.326,8.326,0,0,0-3.335,1.37c-1.279.955-1.325,1.08-.548,1.495a8.073,8.073,0,0,0,2.6.415c2.193.042,2.559.706.868,1.412-4.478,1.868-9.5,4.526-9.5,5.066,0,.581.32.706,4.341,1.661,1.142.291,2.376.623,2.742.706.411.125-.411.664-2.1,1.37-4.341,1.785-4.478,2.616-.548,2.574,3.2-.042,4.2.249,3.564.955a4.333,4.333,0,0,1-1.691.83c-1.279.291-2.924,1-6.991,2.99-2.97,1.495-3.473,2.657-1.508,3.4,2.01.747,8.727.664,10.738-.125,1.873-.747,4.478-.872,4.478-.249,0,.706-2.01,1.619-5.209,2.284-3.792.789-6.671,1.91-6.671,2.533,0,.54,1.462,1,3.107,1a4.955,4.955,0,0,1,2.148.664c1.005.623,1.462.623,4.8.042,3.2-.54,3.747-.54,4.615.042.868.54.96.913.777,4.9-.137,4.816-.457,5.356-3.381,6.021-8.179,1.868-9.687,2.076-17.317,2.076-10.646.042-14.758.623-5.483.789,14.256.249,54.373-.083,54.784-.457.64-.54-.32-.706-5.666-1.163-6.305-.54-12.245-1.536-13.068-2.159-.5-.374-.64-1.329-.548-4.069l.137-3.571,3.427-.249c3.381-.249,7.813-1.453,8.087-2.242.183-.623-4.661-2.367-7.219-2.616-1.736-.166-2.148-.291-1.782-.706.32-.374,1.828-.54,4.706-.54,3.61.042,4.523-.125,6.214-.955,1.1-.54,2.833-1.412,3.884-1.868,2.513-1.163,3.29-2.035,2.6-2.823-.548-.623-1.828-.872-7.128-1.495-1.736-.166-3.61-.457-4.112-.581a15.189,15.189,0,0,0-2.422-.374c-.822-.042-1.462-.291-1.416-.5.046-.249.457-.374.868-.291a2.459,2.459,0,0,0,1.6-.747,3.269,3.269,0,0,1,2.193-.83c1.142,0,4.752-1.287,8.087-2.865,1.1-.54,1.051-1.578-.091-2.284a15.43,15.43,0,0,0-4.615-.872c-3.7-.249-7.265-1.536-5.711-2.076a5.151,5.151,0,0,1,2.33.125c1.736.457,3.838.208,4.249-.415.183-.249-.274-.913-1.005-1.495-1.645-1.412-7.768-4.235-9.138-4.235-.594,0-1.1-.208-1.1-.415,0-.249.777-.415,1.736-.415a6.254,6.254,0,0,0,2.33-.374c.685-.374.32-1.287-.5-1.287-.64,0-6.305-2.491-6.305-2.782a10.84,10.84,0,0,1,2.513.083,7.2,7.2,0,0,0,2.513.083c0-.581-2.65-2.491-4.8-3.488-1.234-.581-2.833-1.412-3.518-1.827A6.086,6.086,0,0,0,78.128-223C78.082-223,76.757-222.211,75.249-221.3Zm-7.082,19.889a.483.483,0,0,1-.5.415c-.228,0-.32-.208-.183-.415a.751.751,0,0,1,.5-.415C68.076-201.824,68.167-201.658,68.167-201.409Z"
        transform="translate(-27.466 249.989)"
    />
    <path
        d="M200.311-220.29a3.231,3.231,0,0,0-1.736,2.367c-.548,1.868-1.6,5.522-3.2,10.879-.548,1.827-1.462,4.983-2.056,7.059-1.005,3.488-1.371,4.65-3.2,10.8-.366,1.246-1.005,3.363-1.371,4.65-.411,1.329-.914,2.948-1.142,3.654-.228.664-.96,2.865-1.645,4.9-1.6,4.941-2.513,5.688-7.493,6.062-2.559.208-2.97.374-2.97,1.038,0,.789.32.83,8.91.706,4.889-.042,9.047-.208,9.23-.291a1.176,1.176,0,0,0,.366-1c0-.789-.868-1.246-2.285-1.246s-3.2-.913-3.2-1.619a133.86,133.86,0,0,1,4.2-14.906c.548-.581,10.235-.706,11.24-.125.594.332,3.929,10.754,4.478,13.993.228,1.578.183,1.744-1.051,2.159a13.525,13.525,0,0,1-2.65.581c-1.1.083-1.416.332-1.508,1.246-.091.664,0,1.163.228,1.163.183,0,4.478.042,9.5.042l9.138.042v-1.121c0-.913-.32-1.2-1.736-1.661a10.037,10.037,0,0,1-2.376-1.038c-.731-.54-2.148-4.484-4.158-11.418-.64-2.284-1.553-5.481-2.01-7.059-.457-1.619-1.462-5.066-2.193-7.681-.777-2.616-2.33-8.138-3.518-12.249-1.142-4.111-2.33-8.18-2.559-9.052C203.052-221.12,202.367-221.328,200.311-220.29Zm1.005,21.383a64.4,64.4,0,0,1,2.01,7.931c-.32.415-9.184.415-9.5,0a63.161,63.161,0,0,1,2.056-7.557c2.7-8.595,2.65-8.47,2.97-8.221C198.94-206.629,200.082-203.1,201.316-198.906Z"
        transform="translate(-99.844 248.773)"
    />
    <path
        d="M259.208-217.336c-.411,1,.822,1.661,3.655,1.951,4.067.457,3.838-.623,4.067,19.889.228,17.6.228,18.062,1.279,20.885a11.591,11.591,0,0,0,3.427,5.024c3.2,2.948,5.757,3.7,12.428,3.654,4.8,0,5.255-.083,8.087-1.37a12.672,12.672,0,0,0,6.488-5.813c1.782-3.4,1.965-5.522,2.01-22.92,0-16.318.046-16.9.914-17.937a3.542,3.542,0,0,1,2.65-1.2c1.553-.125,1.691-.249,1.691-1.37v-1.246H291.284v1.246c0,1.163.137,1.246,2.056,1.453a10.831,10.831,0,0,1,3.061.747l1.051.5.091,15.7c.091,8.595-.046,16.941-.274,18.518-.96,7.142-4.8,10.629-11.651,10.629-5.209,0-7.859-1.578-9.778-5.854-.96-2.159-1.005-2.865-1.142-19.64-.091-9.591-.046-17.854.137-18.394.274-1.08,2.6-2.2,4.523-2.2,1.462,0,1.782-.5,1.188-1.827l-.457-1.08H269.809C260.67-218,259.482-217.917,259.208-217.336Z"
        transform="translate(-145.263 247.065)"
    />
    <path
        d="M362.64-217.419c-.548,1.246.046,2.118,1.416,2.242a6.706,6.706,0,0,1,2.513.913l1.142.789.183,20.594c.046,11.294,0,21.051-.137,21.633-.32,1.038-2.01,1.952-4.478,2.45-1.005.166-1.279.457-1.279,1.246,0,.581.274,1.038.594,1.038.274,0,4.341.083,9,.166,9.915.249,13.845-.166,17.591-1.785,5.8-2.533,8.453-6.56,8.453-12.747s-3.381-10.962-8.636-12.373c-2.6-.664-2.787-1.163-.685-1.868a12.454,12.454,0,0,0,6.58-6.519c2.6-6.353-.868-13.245-7.9-15.57-2.056-.706-3.747-.789-13.251-.789C364.7-218,362.822-217.917,362.64-217.419Zm20.424,2.782a8.8,8.8,0,0,1,5.392,5.232,18.92,18.92,0,0,1,0,8.47,8.439,8.439,0,0,1-4.386,4.775,13.613,13.613,0,0,1-5.072.5l-3.518-.125-.137-3.322c-.091-1.827-.046-6.145.137-9.591l.32-6.27,2.7-.083A20.887,20.887,0,0,1,383.064-214.637Zm1.965,22.961c3.564,1.329,5.255,4.152,5.62,9.218.32,4.277-.64,7.432-2.924,9.757-2.376,2.367-4.249,3.031-8.59,3.073h-3.655l-.137-10.588c-.046-5.813,0-11.045.137-11.584.274-.955.366-1,4.112-.747A25.688,25.688,0,0,1,385.029-191.676Z"
        transform="translate(-201.129 247.065)"
    />
    <path
        d="M283.238-83.365c-.366.872.046,1.951.731,1.951.868,0,1.051-1.287.32-1.993C283.6-83.988,283.512-83.988,283.238-83.365Z"
        transform="translate(-158.281 168.608)"
    />
    <path
        d="M341.353-83.263c-.594.623-.731,1.536-.64,4.692a15.431,15.431,0,0,1-.274,4.609c-.32.623-.137.747,1.234.747h1.6l-.274-2.7c-.183-2.159-.046-2.865.548-3.488.685-.664.685-.789.046-1.287-.96-.706-.914-2.118.046-1.785.731.249,1.691-.623,1.279-1.2C344.505-84.3,342.129-84.01,341.353-83.263Z"
        transform="translate(-189.346 168.713)"
    />
    <path
        d="M41.911-82.294a42.029,42.029,0,0,0-1.462,4.277,16.922,16.922,0,0,1-1.691,4.111c-.822.747-.5,1.453.731,1.619,1.416.208,2.239-.54,1.965-1.785-.137-.706.046-1.121.594-1.287a1.684,1.684,0,0,1,2.285,1.744c0,1,.228,1.246,1.279,1.329,1.462.166,2.056-.747,1.325-2.118a10.806,10.806,0,0,1-.731-1.744C44.881-81.049,44.013-83,43.191-83A1.633,1.633,0,0,0,41.911-82.294Zm1.234,4.858c-.64.623-1.005,0-.594-1.08.32-.913.32-.913.64-.125A1.209,1.209,0,0,1,43.145-77.436Z"
        transform="translate(-25.335 168.118)"
    />
    <path
        d="M113.225-82.343a1.046,1.046,0,0,0,.228,1.08,1.17,1.17,0,0,0,1.919-.913C115.373-83.173,113.636-83.339,113.225-82.343Z"
        transform="translate(-65.99 168.126)"
    />
    <path
        d="M177.325-82.543a.812.812,0,0,0,.228.913c.274.249.5,1.993.5,4.069,0,3.446.046,3.7,1.188,4.484a4.023,4.023,0,0,0,4.8.083c.96-.706,1.1-1.2,1.279-4.484a11.559,11.559,0,0,1,.594-4.152c.64-.747.046-1.37-1.371-1.37h-1.279l.183,4.36.183,4.318-1.188.291c-2.01.457-2.559-.374-2.559-3.945a8.676,8.676,0,0,1,.5-3.654c.777-.706.091-1.37-1.416-1.37A2.487,2.487,0,0,0,177.325-82.543Z"
        transform="translate(-100.801 168.118)"
    />
    <path
        d="M217.606-82.419c-.411.913.868,1.744,1.691,1.08.868-.623.457-1.661-.64-1.661A1.158,1.158,0,0,0,217.606-82.419Z"
        transform="translate(-122.668 168.118)"
    />
    <path
        d="M358.5-77.81v5.19h2.833c2.65,0,2.924-.083,3.838-1.246l1.005-1.246L367-73.865a3.548,3.548,0,0,0,4.386,1.287c1.462-.623,1.142-1.536-.5-1.37-1.371.166-2.559-.5-2.559-1.412,0-.415.594-.581,2.01-.581,2.422,0,3.016-.913,1.919-2.823-1.416-2.533-4.661-1.91-5.711,1.08l-.594,1.785-.685-1.121a2.179,2.179,0,0,1-.137-2.284c1.005-2.2-.914-3.7-4.706-3.7H358.5Zm4.8-2.284c0,.83-.274,1.287-.96,1.453-1.142.332-1.416.125-1.6-1.329-.137-1.287.411-1.785,1.691-1.495C363.023-81.3,363.3-80.882,363.3-80.094Zm7.311,2.076c0,.623-.32.83-1.142.83-1.1,0-1.554-.747-.822-1.37C369.329-79.18,370.608-78.848,370.608-78.017Zm-7.036,1.91c.457,1.578-.091,2.325-1.508,2.159-1.005-.083-1.279-.374-1.325-1.163a3.546,3.546,0,0,1,.32-1.744C361.607-77.81,363.252-77.312,363.572-76.107Z"
        transform="translate(-199.229 168.118)"
    />
    <path
        d="M392.287-82.255a1,1,0,0,0,.183,1.121c.685.623,2.01.042,1.828-.789A1.1,1.1,0,0,0,392.287-82.255Z"
        transform="translate(-217.526 167.996)"
    />
    <path
        d="M292.008-79.736c-.5.872-.594,2.035-.411,4.484.274,3.488.64,4.318,2.01,4.318,1.188,0,1.6-.872.731-1.453-.548-.374-.777-1.163-.777-2.865,0-2.159.091-2.325,1.051-2.325s1.234.415,2.33,3.4l1.234,3.363-.96.913c-1.142,1.121-1.142,1.453,0,1.453,1.234,0,2.01-1.246,3.473-5.4a22.2,22.2,0,0,1,1.6-3.986c.548-.581.046-1-1.279-1-.914,0-1.051.208-1.1,1.536a6.712,6.712,0,0,1-.411,2.408c-.32.747-.411.747-.914-.415a6.768,6.768,0,0,1-.548-2.408c.046-1.038-.091-1.121-2.01-1.121-1.736,0-2.1-.125-2.467-1.038C293.013-81.19,292.83-81.148,292.008-79.736Z"
        transform="translate(-162.847 166.848)"
    />
    <path
        d="M430.859-79.055a16.957,16.957,0,0,0-.137,4.4c.183,3.156.32,3.529,1.325,3.945,1.554.623,2.422-.208,1.371-1.287-1.051-1.038-1.051-4.111,0-5.19.777-.747.777-.789,0-1.163a1.563,1.563,0,0,1-.777-1C432.641-80.3,431.27-80.051,430.859-79.055Z"
        transform="translate(-238.415 166.332)"
    />
    <path
        d="M60.82-76.36a12.681,12.681,0,0,0-.32,3.82c0,3.778.32,4.36,2.056,3.861.594-.166.731-.747.731-3.031-.046-2.2.091-2.782.64-2.782s.685.54.64,2.782c-.091,2.99.411,3.654,2.148,2.823.731-.374.777-.623.411-1.287-.777-1.246-.411-4.277.5-4.443.594-.083.822.291.96,1.868a4.138,4.138,0,0,1-.183,2.367c-.685.747-.366,1.412.731,1.578,1.873.332,2.01-.042,1.645-3.571-.366-3.571-1.142-4.65-2.924-4.111a6.18,6.18,0,0,1-1.645.166A25.559,25.559,0,0,0,60.82-76.36Z"
        transform="translate(-37.39 164.385)"
    />
    <path
        d="M86.334-75.69c-1.234,1.163-1.371,1.495-1.142,3.156.366,3.2,3.564,5.066,5.529,3.239.96-.83.457-1.536-.868-1.246-1.462.332-2.513-.083-2.513-1.038,0-.664.32-.789,2.01-.789,2.833,0,3.244-1.412,1.051-3.654C89.121-77.267,87.979-77.184,86.334-75.69Zm3.2,1.37c.137.5-.137.706-1.005.706-1.142,0-1.6-.747-.868-1.412A1.243,1.243,0,0,1,89.532-74.319Z"
        transform="translate(-50.75 164.545)"
    />
    <path
        d="M122.241-75.713a4.134,4.134,0,0,0-.183,6.021c1.508,1.495,4.021,1.412,4.432-.166.091-.457-.274-.623-1.416-.623-1.462,0-1.645-.125-1.919-1.412-.594-2.574.914-4.318,2.33-2.74.685.747,1.371.415,1.371-.664,0-.5-.457-.955-1.188-1.2C123.977-77.083,123.7-77.042,122.241-75.713Z"
        transform="translate(-70.162 164.527)"
    />
    <path
        d="M137.01-76.484c-1.325.457-1.736,1.619-.777,1.951.411.166.868.042.96-.208.228-.706,1.782-.623,2.056.083.32.706-.046,1.08-1.051,1.08-1.279,0-3.2,1.619-3.2,2.7,0,1.453,1.6,2.242,4.341,2.118,1.828-.083,2.285-.249,2.239-.789,0-.374-.046-1.744-.091-2.99-.091-1.868-.32-2.533-1.234-3.322C139.067-76.94,138.564-77.065,137.01-76.484Zm2.559,4.941c0,.5-1.051,1.287-1.691,1.287-.777,0-.777-1.536,0-1.785C138.518-72.248,139.569-71.958,139.569-71.542Z"
        transform="translate(-77.849 164.508)"
    />
    <path
        d="M242.371-75.572c-3.016,2.74-.64,8.055,3.107,6.851,1.782-.581,1.645-1.661-.228-1.495-1.051.083-1.554-.083-1.919-.664-.594-1.038-.228-1.329,1.553-1.329,1.828,0,2.65-.83,2.239-2.242-.32-1.2-.868-1.661-2.376-2.076C243.97-76.776,243.422-76.527,242.371-75.572Zm3.107,1.163c.183.664-1.005,1.121-1.965.789-1.005-.332-.274-1.578.822-1.412A1.787,1.787,0,0,1,245.478-74.41Z"
        transform="translate(-135.417 164.386)"
    />
    <path
        d="M268.938-76.124a1.745,1.745,0,0,0-1.142,1.951c0,1.246.228,1.578,1.6,2.159.868.415,1.6.913,1.553,1.163-.137,1.08-.228,1.246-.868,1.246-.366,0-.685-.166-.685-.374,0-.623-1.508-.913-2.01-.457-.366.332-.183.706.594,1.287,1.416,1.038,2.467,1,3.975-.166,1.691-1.329,1.279-2.99-.96-3.861-2.193-.83-2.193-1.951,0-1.578,1.553.249,1.919,0,1.234-.913C271.68-76.456,270.126-76.663,268.938-76.124Z"
        transform="translate(-149.647 164.273)"
    />
    <path
        d="M324.229-75.713a4.061,4.061,0,0,0-.137,6.021,3.188,3.188,0,0,0,4.478.208c1.005-.706,1.188-1.163,1.188-2.99-.046-2.284-.5-3.156-2.147-3.945C326.148-77.124,325.737-77.041,324.229-75.713Zm3.427,1.121c.548,1.246.274,3.446-.5,4.111-.731.664-.822.664-1.6-.208a3.289,3.289,0,0,1-.366-3.778C325.783-75.422,327.29-75.505,327.656-74.592Z"
        transform="translate(-179.853 164.526)"
    />
    <path
        d="M101.065-75.251a1,1,0,0,0,.274,1.08c.64.581.685,3.9.046,4.235-1.051.581-.411,1.453,1.1,1.453h1.554l-.228-2.7c-.274-2.616-.228-2.7.96-3.073.64-.249,1.188-.706,1.188-1.038C105.954-76.164,101.43-76.123,101.065-75.251Z"
        transform="translate(-59.312 163.982)"
    />
    <path
        d="M113.683-75.917c-.046.083-.091,1.744-.137,3.737l-.046,3.654h2.376l-.183-3.239c-.228-3.82-.366-4.235-1.279-4.235A2.113,2.113,0,0,0,113.683-75.917Z"
        transform="translate(-66.173 164.025)"
    />
    <path
        d="M152.683-75.917c0,.083-.046,1.785-.091,3.778l-.091,3.654,1.325-.125c1.279-.125,1.325-.166,1.371-2.823.046-2.408.137-2.7.96-2.7s.914.249.822,2.782c-.046,2.823-.046,2.823,1.234,2.823h1.234l-.228-3.031c-.32-4.235-.5-4.443-3.747-4.443A25.8,25.8,0,0,0,152.683-75.917Z"
        transform="translate(-87.353 164.025)"
    />
    <path
        d="M199.446-72.163c0,3.7,0,3.7,1.188,3.7,1.142,0,1.188-.042,1.142-2.823-.046-2.616,0-2.782,1.051-2.906,1.1-.166,1.1-.125.868,2.782l-.228,2.948h1.188c1.234,0,1.234-.042,1.279-2.823.091-3.945-.5-4.609-3.884-4.609l-2.65.042Z"
        transform="translate(-112.824 163.966)"
    />
    <path
        d="M217.683-75.917c0,.083-.046,1.744-.091,3.778l-.091,3.612h2.422l-.228-3.239c-.274-3.861-.366-4.235-1.279-4.235A2.113,2.113,0,0,0,217.683-75.917Z"
        transform="translate(-122.654 164.025)"
    />
    <path
        d="M225-75.751a56.761,56.761,0,0,0,2.787,6.851c.731,1.287,1.553.374,2.879-3.4.64-1.827,1.188-3.4,1.188-3.529,0-.083-.5-.166-1.142-.166-1.005,0-1.142.166-1.142,1.37a3.865,3.865,0,0,1-.64,2.159c-.594.789-.685.747-.96-.623a7.182,7.182,0,0,1-.137-2.076c.091-.415-.32-.664-1.325-.747C225.685-76,225-75.917,225-75.751Z"
        transform="translate(-126.727 164.025)"
    />
    <path
        d="M256.536-75.6c-.137.125,0,.623.274,1.08a8.215,8.215,0,0,1,.228,3.488l-.228,2.616h2.559l-.228-2.616c-.228-2.45-.183-2.616.96-3.156,1.919-.955,1.462-1.619-1.051-1.619A7.672,7.672,0,0,0,256.536-75.6Z"
        transform="translate(-143.825 163.919)"
    />
    <path
        d="M282.683-75.917c0,.083-.046,1.744-.091,3.778l-.091,3.612h1.325c1.234,0,1.279-.083,1.005-1.287a25.329,25.329,0,0,1-.274-3.737c0-2.159-.091-2.45-.914-2.45A3.375,3.375,0,0,0,282.683-75.917Z"
        transform="translate(-157.954 164.025)"
    />
    <path
        d="M391.427-75.559a1.5,1.5,0,0,0,.274,1.287,6.526,6.526,0,0,1,.228,3.363l-.274,2.408h2.6l-.183-3.239c-.137-1.744-.274-3.446-.366-3.737C393.483-76.057,391.838-76.14,391.427-75.559Z"
        transform="translate(-217.077 163.999)"
    />
    <path
        d="M400.427-75.554a1.571,1.571,0,0,0,.274,1.329,6.525,6.525,0,0,1,.228,3.363l-.274,2.408h2.65l-.228-2.616c-.228-2.533-.228-2.616,1.005-3.114,1.645-.706,2.056-.208,2.056,2.657,0,2.906.822,3.571,4.021,3.2,2.513-.249,3.29-.706,2.422-1.495a7.464,7.464,0,0,1-.5-3.322c0-2.7-.046-2.823-1.005-2.7s-1.051.291-.914,2.657c.137,1.91,0,2.616-.594,3.073-1.1.83-1.554.083-1.691-2.906l-.137-2.7-3.518-.125C402.209-75.927,400.609-75.8,400.427-75.554Z"
        transform="translate(-221.965 163.952)"
    />
    <path
        d="M209.466-48.036c-1.873.457-3.975.913-4.661,1.038-1.325.208-3.244,1.785-2.239,1.785A101.7,101.7,0,0,0,213.03-47.7c1.051-.415,1.371-1.287.457-1.2C213.167-48.908,211.339-48.493,209.466-48.036Z"
        transform="translate(-114.391 148.185)"
    />
    <path
        d="M195.352-48.173c-5.483.913-6.4,1.246-7.356,2.906l-.868,1.453,2.559,2.159c1.371,1.2,3.29,2.7,4.2,3.322,2.239,1.536,2.239,2.367-.091,2.367-1.142,0-1.873-.208-2.056-.623-.32-.789-1.371-.789-2.924-.042-3.335,1.661-5.94,1.578-8.133-.208a3.16,3.16,0,0,0-1.645-.789c-.96,0-2.422,1.661-3.564,4.028a4.161,4.161,0,0,1-1.234,1.785c-.685,0-1.416-1.495-1.736-3.488-.183-1.038-.548-1.91-.868-1.91a4.209,4.209,0,0,1-1.462-.747c-.777-.623-.914-1.163-.914-3.488.046-2.533-.091-2.906-1.188-3.945-1.1-.955-1.416-1.08-2.513-.706-1.645.5-2.833,2.367-2.148,3.363a2.4,2.4,0,0,0,1.371.872c2.285.291,2.924.581,2.924,1.121,0,.415-.457.623-1.279.623-1.6,0-3.335,1.08-3.016,1.868a2.721,2.721,0,0,0,1.691.83c2.33.415,3.975,1.08,3.975,1.661,0,1.163-6.26,3.2-9.961,3.28-2.1,0-2.6-.125-3.381-1a5.9,5.9,0,0,1-1.142-2.159c-.274-1.37-.868-1.495-1.279-.332-.868,2.533,2.056,5.813,5.209,5.813a18.873,18.873,0,0,0,3.975-.623c1.234-.332,2.285-.623,2.285-.623a2.829,2.829,0,0,1,.32.872c.183.623.548.83,1.325.747a3.454,3.454,0,0,1,1.554.125c.822.457,2.193-.706,1.873-1.536-.228-.54-.64-.623-1.508-.457-2.01.457-2.1-.208-.228-1.412a13.8,13.8,0,0,0,2.513-2.159c.731-.913.731-.913.731.706,0,1.744,1.371,4.235,2.513,4.65,1.005.332,2.285-.872,2.97-2.782a6.212,6.212,0,0,1,1.462-2.367c.777-.623.914-.623,1.873.166,2.467,2.035,3.564,2.159,7.356.747l2.65-1,1.279.872c1.142.747,1.462.789,2.97.332a3.731,3.731,0,0,0,2.422-1.91c.685-1.329.685-1.495-.228-2.574a24.193,24.193,0,0,0-3.61-3.031c-3.335-2.325-3.838-3.861-1.462-4.235,10.418-1.785,10.418-1.785,10.418-.913a.583.583,0,0,1-.5.623c-.868,0-3.153,1.7-3.153,2.325,0,.5.274.457,1.325-.208a5.388,5.388,0,0,1,1.736-.872,7.032,7.032,0,0,0,1.965-1.2c1.325-1.038,1.508-1.329,1.1-1.993C203.759-48.879,200.241-49,195.352-48.173Z"
        transform="translate(-87.712 148.073)"
    />
    <path
        d="M303.746-48.266c-.685.706-1.1,3.4-.548,3.4a15.7,15.7,0,0,0,2.148-1.08c1.736-1,1.828-1.163,1.1-1.661-.457-.291-.685-.706-.5-.955C306.442-49.345,304.523-49.055,303.746-48.266Z"
        transform="translate(-169.057 148.249)"
    />
    <path
        d="M358.386-48.67c-.366.125-.457,1.951-.274,6.685.183,6.519.183,6.519-.685,5.522-1.188-1.329-2.422-1-5.483,1.37-2.741,2.118-3.975,2.616-4.889,1.91-.96-.706-.868-.955.685-1.744,1.554-.83,1.782-1.785.5-2.408-1.371-.623-6.305-.5-7.859.249-1.736.789-1.645,2.076.137,1.91a1.953,1.953,0,0,1,1.462.249c.548.83-1.234,1.453-4.067,1.495-2.7.042-3.016-.042-4.432-1.329a6.183,6.183,0,0,0-2.239-1.329c-.96,0-2.467,1.536-3.335,3.4-.685,1.619-1.782,2.076-2.285.913a3.813,3.813,0,0,1,.411-2.118,10.256,10.256,0,0,0,.685-3.529c0-1.91.091-2.035.777-1.536,1.736,1.329,6.762.415,5.255-.955-.548-.5-3.975-.581-5.209-.125-.731.249-.822.042-.822-1.827a6.922,6.922,0,0,1,.5-2.865c.594-.913-.64-3.82-1.691-3.82-.64,0-.685.83-.594,6.436.091,4.526-.046,6.6-.411,6.934-1.234,1.121-.32,4.775,1.508,6.145.594.457.868.415,1.6-.208a2.482,2.482,0,0,0,.914-1.2,8.882,8.882,0,0,1,1.051-2.076l1.1-1.578,1.554,1.246c2.879,2.284,5.026,2.408,10.281.457,1.325-.5,1.553-.415,2.924.581,2.1,1.619,3.2,1.412,6.305-1.038l1.508-1.163,1.188.83c1.462,1.038,2.193,1.038,3.016,0,.594-.789.685-.747,1.736.747s1.188,1.536,3.61,1.495a31.348,31.348,0,0,0,4.3-.374c1.416-.249,1.828-.208,2.193.332a1.609,1.609,0,0,0,1.325.706c.731,0,.914-.249.777-1.038-.091-.54.091-1,.32-1a.469.469,0,0,1,.5.5c.046.249.091.664.137.913.046.208.457,0,.914-.5a4.1,4.1,0,0,1,1.919-1.038c1.462-.166,1.508-1.744.091-1.91-.914-.125-1.051-.374-1.051-2.284a42.243,42.243,0,0,0-.457-4.983c-.32-1.993-.32-3.073.046-3.654.366-.664.32-1.2-.274-2.284-1.371-2.657-1.828-1.578-1.691,4.028.091,2.823.228,5.854.366,6.685.32,1.785-.046,1.91-3.016,1.121-1.691-.457-1.736-.54-1.279-1.7a11.322,11.322,0,0,0,.183-4.152c-.183-1.785-.091-3.114.183-3.446.64-.706-.685-3.529-1.645-3.529-.685,0-.731.581-.411,5.439.32,5.813.228,6.187-1.873,6.187a2.485,2.485,0,0,0-1.6.664c-.777.83-.274,1.121,3.153,1.827l2.6.54-1.371.54a12.371,12.371,0,0,1-3.29.581c-3.2,0-3.61-.83-3.929-8.512C359.619-47.8,359.391-49,358.386-48.67Z"
        transform="translate(-180.472 148.196)"
    />
    <path
        d="M83.956-46.818a1.318,1.318,0,0,0-.228,1.163c.137.208-.777,1.287-2.056,2.367-2.97,2.574-2.422,3.239.685.789a12.9,12.9,0,0,1,2.879-1.868c1.1,0,.914-2.7-.183-3.073C84.732-47.565,84.23-47.275,83.956-46.818Z"
        transform="translate(-47.823 147.341)"
    />
    <path
        d="M289.565-47.34c-.274.706,1.325,2.74,5.62,7.017,2.6,2.616,5.072,5.854,5.072,6.643,0,.581-3.016,1.993-6.4,2.948-2.422.706-2.467.747-1.188,1.121,2.33.706,6.168-.374,8.316-2.367,2.33-2.076,3.061-4.235,2.879-8.3a16.832,16.832,0,0,1,.228-3.9c.411-1.163-.5-3.82-1.371-3.82-.777,0-.731-.374-.64,7.225.091,6.353-.228,7.142-1.553,4.235a31.522,31.522,0,0,0-4.341-5.066c-2.01-2.035-3.7-4.028-3.7-4.4,0-.623-1.6-1.993-2.33-1.993C289.976-48,289.7-47.714,289.565-47.34Z"
        transform="translate(-161.775 147.655)"
    />
    <path
        d="M337.4-47.223a1.75,1.75,0,0,0-.548,1.121,4.664,4.664,0,0,1-1.462,1.993c-2.1,1.951-1.234,2.159,1.188.291,1.325-1,2.1-1.91,2.1-2.533C338.678-47.472,338.084-47.845,337.4-47.223Z"
        transform="translate(-186.032 147.372)"
    />
    <path
        d="M363.641-47.535c-.5.166-3.381.955-6.4,1.7-6.26,1.536-8.316,2.325-7.676,2.906.32.291,1.508.125,3.381-.374,1.6-.457,4.478-1.2,6.351-1.7,5.483-1.412,7.036-1.951,7.219-2.45C366.7-48.034,365.011-48.075,363.641-47.535Z"
        transform="translate(-194.317 147.601)"
    />
    <path
        d="M38.274-46.341c-.914.83-1.462,3.488-.868,4.318a1.878,1.878,0,0,0,2.65.457c.914-.706.868-1.578-.091-1.495-.868.042-1.005-.747-.457-2.782C39.873-47.089,39.371-47.3,38.274-46.341Z"
        transform="translate(-24.713 147.03)"
    />
    <path
        d="M170.461-46.621c-.366.54.183,1.7.822,1.7,1.005,0,1.782-.747,1.508-1.412C172.471-47.037,170.872-47.244,170.461-46.621Z"
        transform="translate(-97.044 147.061)"
    />
    <path
        d="M106.547-40.76c-.777,1.37-2.239,1.993-3.153,1.287-.5-.332-.822-.291-1.371.208-.914.872-.914.872.228,2.325a3.2,3.2,0,0,1,.777,1.91c-.228,1.121-4.3,3.7-9.732,6.187-2.741,1.246-5.529,2.533-6.168,2.906-1.1.623-1.1.623.914.374A28.337,28.337,0,0,0,100.2-30.131c3.2-2.076,4.3-3.4,4.3-5.149,0-.913.366-1.453,1.371-2.118l1.371-.872v.955c.046,3.239,1.508,4.069,7.219,4.069,4.432,0,7.037-.664,7.859-2.035a4.008,4.008,0,0,0-.32-4.152c-.685-.913-.777-.955-1.325-.249-.5.623-.5.955.046,1.91.914,1.536.914,1.495-.868,2.035-2.422.706-8.27.623-9.55-.125-1.1-.623-1.691-2.367-1.691-4.983C108.6-42.338,107.461-42.3,106.547-40.76Z"
        transform="translate(-51.452 144.106)"
    />
    <path
        d="M78.495-36.215a6,6,0,0,0-1.508,1.661c-.64,1.163-.64,1.329.091,2.076a2.764,2.764,0,0,0,1.6.789c1.188,0,2.239.457,2.239,1,0,.955-6.351,4.152-12.794,6.477-4.569,1.619-4.432,1.536-3.747,2.159.366.332.868.332,1.782.042.685-.249,2.422-.664,3.792-.955,4.158-.872,9.915-3.9,11.469-6.062C83.567-32.022,81.282-37.627,78.495-36.215Z"
        transform="translate(-39.301 140.89)"
    />
    <path
        d="M201.037-34.277c-.685.5-.731.664-.183,1.329.5.623.822.706,1.462.332a1.648,1.648,0,0,1,1.691.042c.594.374.914.374,1.325,0,.822-.747.137-1.785-1.142-1.785a6.732,6.732,0,0,1-1.736-.208A1.887,1.887,0,0,0,201.037-34.277Z"
        transform="translate(-113.41 139.824)"
    />
    <path
        d="M218.654-33.946c-.822,1.412-.274,2.035,1.462,1.661,1.873-.332,2.285-1,1.371-1.91A1.63,1.63,0,0,0,218.654-33.946Z"
        transform="translate(-123.077 139.991)"
    />
    <path
        d="M55-32.892c0,.872.274,1,1.965,1.163,2.467.249,3.153,0,2.97-1.08-.137-.747-.5-.872-2.513-.955C55.137-33.889,55-33.806,55-32.892Z"
        transform="translate(-34.403 139.352)"
    />
    <path
        d="M248.726-32.011c-.548,1.08-2.148,1.412-2.513.5-.183-.374-.32-.374-.777,0-.5.415-.5.83,0,2.159.548,1.578.548,1.7-.5,2.533-1.142.872-9.915,4.983-10.692,4.983a4.772,4.772,0,0,0-1.6.83l-1.142.83,2.056-.249a20.609,20.609,0,0,0,7.768-2.325c3.244-1.536,4.935-2.906,5.711-4.609a6.738,6.738,0,0,1,1.554-2.118c.96-.789.96-.789.96.54,0,1.578,1.051,3.571,2.056,3.945a5.719,5.719,0,0,0,5.711-1.246c1.782-1.495,1.782-1.495,3.107-.747,1.462.747,2.7.581,3.107-.457.457-1.08-.274-3.488-1.188-3.945-.777-.374-1.371-.083-3.884,2.076-2.422,2.035-3.244,2.491-4.523,2.491-1.965,0-3.016-1.2-3.016-3.363C250.919-33.049,249.731-34.046,248.726-32.011Z"
        transform="translate(-130.257 138.928)"
    />
    <path
        d="M37.971-29.921c-1.142,1.287-1.279,4.111-.274,5.315,1.828,2.2,6.214,2.491,11.88.83,2.01-.581,4.569-1.329,5.666-1.619l2.01-.581-1.462,1.37c-1.279,1.2-1.828,2.325-1.142,2.325.594,0,4.661-3.446,4.843-4.069.64-2.118-1.051-2.242-6.762-.54-2.239.664-5.346,1.453-6.9,1.744-2.513.457-3.061.457-4.478-.166-1.965-.83-2.65-2.2-2.01-4.111.5-1.661.5-1.578,0-1.578A3.38,3.38,0,0,0,37.971-29.921Z"
        transform="translate(-24.639 137.71)"
    />
    <path
        d="M142.318-13.7a1.223,1.223,0,0,0,.457,1.951,1.515,1.515,0,0,0,1.416-.332c.594-.5.594-.747.091-1.246A1.351,1.351,0,0,0,142.318-13.7Z"
        transform="translate(-81.649 127.763)"
    />
    <path
        d="M260.486-8.185a.975.975,0,0,0-.32,1.038c.091.54.548.789,1.508.789a5.577,5.577,0,0,1,1.873.332c.731.374,1.645-.706,1.279-1.495C264.553-8.185,261.354-8.683,260.486-8.185Z"
        transform="translate(-145.81 124.486)"
    />
    <path
        d="M120.184-7.177c-.366.872.274,1.287,2.239,1.412,1.828.166,2.924-.457,2.513-1.412C124.616-8.008,120.549-8.008,120.184-7.177Z"
        transform="translate(-69.75 124.142)"
    />
    <path
        d="M216.183-7.189c-.366.913.274,1.329,2.147,1.412,2.6.125,2.833.042,2.65-.955-.137-.789-.457-.913-2.33-1C217.051-7.812,216.366-7.646,216.183-7.189Z"
        transform="translate(-121.885 124.113)"
    />
</svg>
