<svg height="40" viewBox="0 0 331.086 97.266">
    <path
        d="M52.61,41.183a17.387,17.387,0,0,1-8.78-2.158,14.394,14.394,0,0,1-5.739-6.18,20.81,20.81,0,0,1-2.011-9.418,20.5,20.5,0,0,1,2.011-9.368,14.393,14.393,0,0,1,5.739-6.18A17.388,17.388,0,0,1,52.61,5.72a18.53,18.53,0,0,1,6.082.981,15.44,15.44,0,0,1,5.052,2.747,2.815,2.815,0,0,1,.883,1.03,3.191,3.191,0,0,1,.245,1.324,2.813,2.813,0,0,1-.589,1.815,1.767,1.767,0,0,1-1.422.736,3.627,3.627,0,0,1-2.011-.687,13.969,13.969,0,0,0-3.924-2.158A12.068,12.068,0,0,0,52.9,10.87q-5.1,0-7.75,3.188-2.6,3.188-2.6,9.368,0,6.229,2.6,9.418,2.649,3.188,7.75,3.188a11.336,11.336,0,0,0,3.875-.638,18.449,18.449,0,0,0,4.071-2.158,6.855,6.855,0,0,1,.981-.49,2.749,2.749,0,0,1,1.03-.2,1.767,1.767,0,0,1,1.422.736,2.813,2.813,0,0,1,.589,1.815,3.412,3.412,0,0,1-.245,1.324,2.814,2.814,0,0,1-.883,1.03,16.186,16.186,0,0,1-5.052,2.8A19.421,19.421,0,0,1,52.61,41.183ZM72.9,41.036A3.331,3.331,0,0,1,70.7,40.3a2.883,2.883,0,0,1-.834-2.207V8.81A2.726,2.726,0,0,1,70.7,6.652a3.679,3.679,0,0,1,4.414,0,2.649,2.649,0,0,1,.883,2.158V38.093a2.8,2.8,0,0,1-.883,2.207A3.331,3.331,0,0,1,72.9,41.036Zm20.351.1a13.34,13.34,0,0,1-6.475-1.521,10.561,10.561,0,0,1-4.267-4.365,13.841,13.841,0,0,1-1.521-6.622,13.553,13.553,0,0,1,1.521-6.573,10.561,10.561,0,0,1,4.267-4.365,13.34,13.34,0,0,1,6.475-1.521,13.057,13.057,0,0,1,6.425,1.521,10.184,10.184,0,0,1,4.267,4.365,13.553,13.553,0,0,1,1.521,6.573,13.841,13.841,0,0,1-1.521,6.622,10.184,10.184,0,0,1-4.267,4.365A13.057,13.057,0,0,1,93.254,41.134Zm-.049-4.758a5.5,5.5,0,0,0,4.562-1.962,9.115,9.115,0,0,0,1.57-5.788,9.024,9.024,0,0,0-1.57-5.739,5.384,5.384,0,0,0-4.513-2.011,5.523,5.523,0,0,0-4.562,2.011,9.024,9.024,0,0,0-1.57,5.739,9.115,9.115,0,0,0,1.57,5.788A5.441,5.441,0,0,0,93.205,36.376Zm36.257-20.11a3.159,3.159,0,0,1,2.256.785,2.758,2.758,0,0,1,.834,2.109V38.191a2.624,2.624,0,0,1-.883,2.06,3.089,3.089,0,0,1-2.207.785,2.96,2.96,0,0,1-2.109-.736,2.623,2.623,0,0,1-.785-2.011V37.063a7.988,7.988,0,0,1-3.041,3.041,8.957,8.957,0,0,1-4.316,1.03q-8.829,0-8.829-9.908V19.16a2.759,2.759,0,0,1,.834-2.109,3.09,3.09,0,0,1,2.207-.785,3.159,3.159,0,0,1,2.256.785,2.758,2.758,0,0,1,.834,2.109V31.275a5.788,5.788,0,0,0,1.03,3.777,4,4,0,0,0,3.237,1.226,5.24,5.24,0,0,0,4.071-1.668,6.427,6.427,0,0,0,1.57-4.513V19.16a2.759,2.759,0,0,1,.834-2.109A3.09,3.09,0,0,1,129.463,16.266ZM158.947,5.916A3.27,3.27,0,0,1,161.2,6.7a2.624,2.624,0,0,1,.883,2.06V38.093a2.759,2.759,0,0,1-.834,2.109,3.5,3.5,0,0,1-4.414,0A2.758,2.758,0,0,1,156,38.093V36.867a7.642,7.642,0,0,1-3.139,3.139,9.262,9.262,0,0,1-4.611,1.128,10.06,10.06,0,0,1-5.543-1.57,10.665,10.665,0,0,1-3.777-4.414,15.751,15.751,0,0,1-1.324-6.622A15.088,15.088,0,0,1,138.934,22a10.378,10.378,0,0,1,3.777-4.316,10.144,10.144,0,0,1,5.543-1.521,9.6,9.6,0,0,1,4.611,1.079,7.488,7.488,0,0,1,3.09,3.041V8.663a2.561,2.561,0,0,1,.785-1.962A3.089,3.089,0,0,1,158.947,5.916Zm-9.074,30.46a5.384,5.384,0,0,0,4.513-2.011A8.951,8.951,0,0,0,156,28.626a8.741,8.741,0,0,0-1.619-5.69,5.331,5.331,0,0,0-4.464-2.011,5.583,5.583,0,0,0-4.562,1.962,8.654,8.654,0,0,0-1.619,5.641,9.164,9.164,0,0,0,1.619,5.788A5.415,5.415,0,0,0,149.872,36.376Zm45.4-14.323a2.449,2.449,0,0,1,1.815.687,2.227,2.227,0,0,1,.687,1.717V35a6.306,6.306,0,0,1-.589,3.188,4.3,4.3,0,0,1-2.4,1.521,25.3,25.3,0,0,1-4.56,1.079,33.524,33.524,0,0,1-5,.392,19.306,19.306,0,0,1-9.27-2.109,14.432,14.432,0,0,1-6.033-6.082,20.74,20.74,0,0,1-2.06-9.565,20.208,20.208,0,0,1,2.06-9.418,14.519,14.519,0,0,1,5.935-6.131,18.07,18.07,0,0,1,9.025-2.158A16.954,16.954,0,0,1,196.2,9.448a3.413,3.413,0,0,1,.834,1.079,2.624,2.624,0,0,1,.294,1.275,2.813,2.813,0,0,1-.589,1.815,1.766,1.766,0,0,1-1.422.736,3.1,3.1,0,0,1-.981-.147,7.175,7.175,0,0,1-1.03-.589,14.956,14.956,0,0,0-4.021-2.109,12.992,12.992,0,0,0-4.218-.638q-5.347,0-8.093,3.188-2.7,3.139-2.7,9.368,0,12.753,11.183,12.753a24.694,24.694,0,0,0,6.671-.932V26.566H186.59a2.769,2.769,0,0,1-1.864-.589,2.156,2.156,0,0,1-.638-1.668,2.156,2.156,0,0,1,.638-1.668,2.769,2.769,0,0,1,1.864-.589Zm19.492-5.886q5,0,7.406,2.5,2.454,2.453,2.452,7.5V38.142a2.844,2.844,0,0,1-.785,2.109,3.026,3.026,0,0,1-2.158.736,2.96,2.96,0,0,1-2.109-.785,2.788,2.788,0,0,1-.785-2.06V37.063a6.346,6.346,0,0,1-2.649,2.992,7.744,7.744,0,0,1-4.12,1.079,9.63,9.63,0,0,1-4.365-.981,7.777,7.777,0,0,1-3.09-2.7,6.83,6.83,0,0,1-1.128-3.826,6.133,6.133,0,0,1,1.324-4.169,8.265,8.265,0,0,1,4.414-2.207,39.983,39.983,0,0,1,8.388-.687h1.226V25.438a4.926,4.926,0,0,0-1.03-3.483,4.324,4.324,0,0,0-3.335-1.128,10.046,10.046,0,0,0-2.894.441,33.84,33.84,0,0,0-3.483,1.177,4.9,4.9,0,0,1-1.864.638,1.92,1.92,0,0,1-1.472-.638,2.814,2.814,0,0,1-.147-3.09,4.1,4.1,0,0,1,1.422-1.177,16.04,16.04,0,0,1,4.071-1.471A21.476,21.476,0,0,1,214.763,16.168Zm-1.521,20.552a5.2,5.2,0,0,0,3.973-1.619,5.973,5.973,0,0,0,1.57-4.267V29.8H217.9a33.859,33.859,0,0,0-5.1.294,4.961,4.961,0,0,0-2.6,1.03,2.626,2.626,0,0,0-.785,2.011,3.444,3.444,0,0,0,1.079,2.6A4.042,4.042,0,0,0,213.243,36.719Zm30.07-.245q2.454.147,2.452,2.207a2.039,2.039,0,0,1-.981,1.815,4.588,4.588,0,0,1-2.7.49l-1.324-.1q-8.24-.589-8.24-8.829V21.367h-2.452a3.219,3.219,0,0,1-2.06-.589,2.142,2.142,0,0,1-.687-1.717,2.142,2.142,0,0,1,.687-1.717,3.219,3.219,0,0,1,2.06-.589h2.452V12.244a2.764,2.764,0,0,1,.834-2.109,3.163,3.163,0,0,1,2.256-.785,3.084,3.084,0,0,1,2.207.785,2.755,2.755,0,0,1,.834,2.109v4.513h4.169a3.009,3.009,0,0,1,2.011.589,2.068,2.068,0,0,1,.736,1.717,2.068,2.068,0,0,1-.736,1.717,3.009,3.009,0,0,1-2.011.589h-4.169V32.5q0,3.63,3.335,3.875Zm24.63-2.305a1.582,1.582,0,0,1,1.324.638,2.567,2.567,0,0,1,.54,1.717,2.975,2.975,0,0,1-1.815,2.551,17.191,17.191,0,0,1-3.777,1.521,16.225,16.225,0,0,1-4.022.54q-5.787,0-9.172-3.335t-3.384-9.123a14,14,0,0,1,1.471-6.524,10.75,10.75,0,0,1,4.12-4.414,11.867,11.867,0,0,1,6.082-1.57,10.867,10.867,0,0,1,5.641,1.422,9.65,9.65,0,0,1,3.728,4.022A13.347,13.347,0,0,1,270,27.743q0,2.109-1.864,2.109H253.67a7.827,7.827,0,0,0,1.913,5,6.5,6.5,0,0,0,4.709,1.57,8.689,8.689,0,0,0,2.747-.392,26.1,26.1,0,0,0,2.747-1.079A5.41,5.41,0,0,1,267.943,34.169Zm-8.486-13.685a5.343,5.343,0,0,0-4.022,1.57,7.5,7.5,0,0,0-1.766,4.513h11.085a6.9,6.9,0,0,0-1.471-4.513A4.813,4.813,0,0,0,259.457,20.484Z"
        transform="translate(52.406 8.308)"
    />
    <path
        d="M51.005,38.582a6.425,6.425,0,0,1-2.048,4.275,6.685,6.685,0,0,1-4.562,1.5,6.161,6.161,0,0,1-4.958-2.216,8.931,8.931,0,0,1-1.856-5.928V34.534a9.992,9.992,0,0,1,.862-4.275,6.484,6.484,0,0,1,2.467-2.826,6.822,6.822,0,0,1,3.688-.994A6.286,6.286,0,0,1,49.053,28a6.469,6.469,0,0,1,1.952,4.287H48.694a4.967,4.967,0,0,0-1.305-3.018,3.916,3.916,0,0,0-2.79-.934,4.131,4.131,0,0,0-3.461,1.628,7.5,7.5,0,0,0-1.245,4.634v1.688A7.683,7.683,0,0,0,41.078,40.8a3.832,3.832,0,0,0,3.317,1.677,4.421,4.421,0,0,0,2.934-.862,4.827,4.827,0,0,0,1.365-3.03Zm3-1.066a7.705,7.705,0,0,1,.742-3.425,5.636,5.636,0,0,1,2.084-2.347,5.7,5.7,0,0,1,3.054-.826A5.446,5.446,0,0,1,64.16,32.75,7.033,7.033,0,0,1,65.8,37.624v.156a7.7,7.7,0,0,1-.731,3.4A5.458,5.458,0,0,1,63,43.516a5.708,5.708,0,0,1-3.09.838,5.469,5.469,0,0,1-4.275-1.832,7.03,7.03,0,0,1-1.629-4.85Zm2.227.263a5.567,5.567,0,0,0,.994,3.461,3.4,3.4,0,0,0,5.365-.012,6.088,6.088,0,0,0,.994-3.712,5.485,5.485,0,0,0-1.018-3.449,3.353,3.353,0,0,0-5.329-.024A6.015,6.015,0,0,0,56.232,37.78Zm15.227-6.622.072,1.629a4.722,4.722,0,0,1,3.88-1.868q4.107,0,4.143,4.634v8.562H77.339V35.54a2.964,2.964,0,0,0-.646-2.072A2.547,2.547,0,0,0,74.74,32.8a3.2,3.2,0,0,0-1.892.575,3.9,3.9,0,0,0-1.269,1.509v9.233H69.364V31.157Zm19.765,9.52a1.61,1.61,0,0,0-.683-1.389,6.363,6.363,0,0,0-2.359-.862,11.286,11.286,0,0,1-2.671-.862,3.86,3.86,0,0,1-1.461-1.2,2.892,2.892,0,0,1-.467-1.652,3.366,3.366,0,0,1,1.341-2.694,5.285,5.285,0,0,1,3.449-1.1,5.39,5.39,0,0,1,3.569,1.138,3.607,3.607,0,0,1,1.377,2.91H91.093a1.994,1.994,0,0,0-.778-1.569,2.87,2.87,0,0,0-1.94-.659,3.028,3.028,0,0,0-1.892.527,1.659,1.659,0,0,0-.683,1.377,1.344,1.344,0,0,0,.635,1.21,7.805,7.805,0,0,0,2.287.778,11.951,11.951,0,0,1,2.695.886,3.846,3.846,0,0,1,1.521,1.245,2.994,2.994,0,0,1,.5,1.76,3.332,3.332,0,0,1-1.389,2.79,5.852,5.852,0,0,1-3.6,1.042,6.526,6.526,0,0,1-2.754-.551,4.542,4.542,0,0,1-1.88-1.533,3.76,3.76,0,0,1-.671-2.144h2.216a2.319,2.319,0,0,0,.886,1.772,3.509,3.509,0,0,0,2.2.647,3.575,3.575,0,0,0,2.012-.5A1.575,1.575,0,0,0,91.224,40.677Zm13.885,2.155a4.7,4.7,0,0,1-3.8,1.521,4.058,4.058,0,0,1-3.161-1.2,5.253,5.253,0,0,1-1.09-3.569v-8.43h2.215v8.371q0,2.946,2.4,2.946a3.316,3.316,0,0,0,3.377-1.892V31.157h2.215V44.114h-2.107Zm8.724,1.281h-2.215V25.721h2.215Zm7.347-16.094v3.137H123.6V32.87h-2.419v8.035a1.82,1.82,0,0,0,.323,1.174,1.373,1.373,0,0,0,1.1.383,5.377,5.377,0,0,0,1.054-.144v1.8a6.425,6.425,0,0,1-1.7.24,2.759,2.759,0,0,1-2.239-.9,3.858,3.858,0,0,1-.754-2.551V32.87h-2.359V31.157h2.359V28.02Zm8.209,16.094h-2.216V31.157h2.216ZM127,27.72a1.338,1.338,0,0,1,.323-.91,1.485,1.485,0,0,1,1.964,0,1.308,1.308,0,0,1,.335.91,1.264,1.264,0,0,1-.335.9,1.522,1.522,0,0,1-1.964,0A1.293,1.293,0,0,1,127,27.72Zm8.832,3.437.072,1.629a4.721,4.721,0,0,1,3.88-1.868q4.107,0,4.143,4.634v8.562h-2.215V35.54a2.963,2.963,0,0,0-.647-2.072,2.546,2.546,0,0,0-1.952-.671,3.2,3.2,0,0,0-1.892.575,3.9,3.9,0,0,0-1.269,1.509v9.233h-2.215V31.157Zm11.694,6.371a7.589,7.589,0,0,1,1.4-4.814,4.825,4.825,0,0,1,7.412-.12l.108-1.437h2.024V43.8a5.26,5.26,0,0,1-1.5,3.964,5.481,5.481,0,0,1-4,1.449,6.663,6.663,0,0,1-2.742-.6,4.718,4.718,0,0,1-2.048-1.64l1.149-1.329a4.332,4.332,0,0,0,3.485,1.76,3.373,3.373,0,0,0,2.515-.91,3.465,3.465,0,0,0,.91-2.563V42.821a4.554,4.554,0,0,1-3.628,1.533,4.442,4.442,0,0,1-3.688-1.832A8.031,8.031,0,0,1,147.522,37.528Zm2.227.251a5.838,5.838,0,0,0,.9,3.449,2.923,2.923,0,0,0,2.515,1.246,3.245,3.245,0,0,0,3.078-1.9V34.654a3.283,3.283,0,0,0-3.054-1.856,2.945,2.945,0,0,0-2.527,1.257A6.328,6.328,0,0,0,149.749,37.78Zm20.071,6.335V26.679h4.922a7.921,7.921,0,0,1,4.024,1.006,6.763,6.763,0,0,1,2.694,2.862,9.262,9.262,0,0,1,.97,4.263v1.114a9.3,9.3,0,0,1-.958,4.323,6.65,6.65,0,0,1-2.718,2.85,8.4,8.4,0,0,1-4.107,1.018Zm2.3-15.544V42.234h2.419a5.246,5.246,0,0,0,4.131-1.652,6.805,6.805,0,0,0,1.485-4.706V34.858a6.887,6.887,0,0,0-1.4-4.61,4.94,4.94,0,0,0-3.952-1.677Zm18.34,10.047.336,2.3.49-2.072,3.448-12.167h1.94l3.365,12.167.481,2.107.37-2.347L203.6,26.679h2.31l-4.228,17.436h-2.094l-3.593-12.706-.275-1.329-.277,1.329-3.723,12.706h-2.1l-4.215-17.436h2.3Zm31.62-.036a6.413,6.413,0,0,1-2.048,4.275,6.68,6.68,0,0,1-4.562,1.5,6.155,6.155,0,0,1-4.956-2.216,8.926,8.926,0,0,1-1.857-5.928V34.534a10.006,10.006,0,0,1,.861-4.275,6.491,6.491,0,0,1,2.467-2.826,6.821,6.821,0,0,1,3.689-.994A6.282,6.282,0,0,1,220.127,28a6.455,6.455,0,0,1,1.952,4.287h-2.31a4.967,4.967,0,0,0-1.3-3.018,3.919,3.919,0,0,0-2.791-.934,4.131,4.131,0,0,0-3.46,1.628,7.491,7.491,0,0,0-1.246,4.634v1.688a7.668,7.668,0,0,0,1.187,4.515,3.83,3.83,0,0,0,3.316,1.677,4.415,4.415,0,0,0,2.933-.862,4.825,4.825,0,0,0,1.366-3.03Zm8.2-.97h-5.844V35.8h5.844Zm5.611,4.622h8.262v1.88H233.576V26.679h2.313Zm13.979,0h8.265v1.88H247.558V26.679h2.31Zm23.706-3.652a6.425,6.425,0,0,1-2.048,4.275,6.68,6.68,0,0,1-4.562,1.5,6.164,6.164,0,0,1-4.959-2.216,8.938,8.938,0,0,1-1.854-5.928V34.534a10.007,10.007,0,0,1,.861-4.275,6.491,6.491,0,0,1,2.467-2.826,6.821,6.821,0,0,1,3.689-.994A6.282,6.282,0,0,1,271.622,28a6.467,6.467,0,0,1,1.952,4.287h-2.31a4.981,4.981,0,0,0-1.3-3.018,3.923,3.923,0,0,0-2.791-.934,4.131,4.131,0,0,0-3.46,1.628,7.491,7.491,0,0,0-1.246,4.634v1.688a7.686,7.686,0,0,0,1.185,4.515,3.834,3.834,0,0,0,3.318,1.677,4.419,4.419,0,0,0,2.933-.862,4.825,4.825,0,0,0,1.366-3.03Z"
        transform="translate(54.586 37.359)"
    />
    <path
        d="M18.782,3.381S.9,46.594,38.034,52.185s25.31,43.458-8.191,36.959C-2.358,82.842-9.74,26.165,18.782,3.381Z"
        transform="translate(1.483 4.911)"
    />
    <path
        d="M23.939,45.606a71.971,71.971,0,0,0-3.8-10.815c-2.207-4.9-5.543-11.085-2.06-16.309a10.741,10.741,0,0,1,10.2-4.9c8.559,1.079,14.715,8.976,17.707,16.554,3.654,9.442,1.4,19.62-3.826,27.958-4.513,7.357-11.012,14.273-19.62,16.26l-2.256.466C23.179,72.927,29.261,65.962,23.939,45.606Z"
        transform="translate(24.064 19.631)"
    />
    <path
        d="M28.279,29.694a71.983,71.983,0,0,1,10.766-4.169c5.224-1.594,12.017-3.041,13.709-9.074A10.741,10.741,0,0,0,49.861,5.561C43.46-.226,33.4.215,25.753,2.913,16.213,6.322,9.2,16.7,5.765,24.2A59.718,59.718,0,0,0,1.056,50.172c0,.76.172,2.722.319,4.365C1.473,49.8,9.395,38.94,28.279,29.694Z"
        transform="translate(1.452 1.452)"
    />
</svg>