<svg viewBox="0 0 118.693 72.653">
    <g transform="translate(1 1.077)">
    <path
        d="M124.178,297.736l-7.552,19.3c15.8-2.213,24.124,5.17,27.833,16.514,12.557-20.063,28.907-15.62,38.928-5.946q-2.552-14.848-5.158-29.693c-19.4,7.487-37.963,10.381-54.052-.176Z"
        transform="translate(-95.407 -263.816)"
    />
    <path
        d="M67.035,127.29,10,150.1v3.259l57.035,22.812L123.958,153.4v-3.352Z"
        transform="translate(-10 -127.29)"
    />
    <path
        d="M489.753,286.672l2.211,9.649"
        transform="translate(-394.277 -254.954)"
    />
    <path
        d="M504.9,316.967c1.135,9.3,8.586,16.877,15.5,18.157"
        transform="translate(-406.407 -279.22)"
    />
    <path
        d="M499.216,328.835c1.135,9.3,8.586,16.877,15.5,18.157"
        transform="translate(-401.857 -288.726)"
    />
    <path
        d="M493.155,343.988c1.135,9.3,8.586,16.877,15.5,18.157"
        transform="translate(-397.002 -300.863)"
    />
    <path
        d="M489.114,349.038c1.135,9.3,8.586,16.877,15.5,18.157"
        transform="translate(-393.766 -304.908)"
    />
    <path
        d="M503.17,318.647c1.209,7.907,9.146,14.355,16.515,15.443"
        transform="translate(-405.024 -280.565)"
    />
    <path
        d="M486.169,356.072c.94,8.736,7.114,15.859,12.847,17.061"
        transform="translate(-391.406 -310.542)"
    />
    <path
        d="M500.226,330.856c1.135,9.3,8.586,16.878,15.5,18.157"
        transform="translate(-402.666 -290.344)"
    />
    <path
        d="M504.469,334.505c2.143,9.117,10.376,15.84,17.392,16.356"
        transform="translate(-406.065 -293.267)"
    />
    <path
        d="M496.5,347.51c2.143,9.117,10.376,15.84,17.392,16.356"
        transform="translate(-399.683 -303.684)"
    />
    <path
        d="M488.242,320.749a4.687,4.687,0,1,1-4.687-4.687A4.687,4.687,0,0,1,488.242,320.749Z"
        transform="translate(-385.559 -278.494)"
    />
    </g>
</svg>