<svg height="50" viewBox="0 0 318.441 119.637">
    <path
        d="M86.92,34.308c0,.079-.075.1-.167.047s-.126-.051-.075.006a.534.534,0,0,1-.029.418.419.419,0,0,0,.075.512.649.649,0,0,1,.2.331,4.091,4.091,0,0,0,.705,1.234,1.135,1.135,0,0,1,.221.688c.006.055.1.1.211.1s.2.124.2.32a.44.44,0,0,0,.2.4.372.372,0,0,1,.2.333.357.357,0,0,0,.262.324.259.259,0,0,1,.209.348.462.462,0,0,0,.184.448,1.067,1.067,0,0,1,.329.537c.05.2.15.367.222.367S90,40.8,90,40.9a.524.524,0,0,0,.184.337,1.127,1.127,0,0,1,.264.551c.047.233.164.4.284.4s.2.122.2.32a.438.438,0,0,0,.2.4.333.333,0,0,1,.2.287.673.673,0,0,0,.136.372,4.555,4.555,0,0,1,.8,1.375.319.319,0,0,0,.192.273.706.706,0,0,1,.278.464c.047.216.14.359.205.318s.157.079.2.266.169.34.271.34.186.145.186.387c0,.221.087.42.2.464a.357.357,0,0,1,.2.316.563.563,0,0,0,.264.4c.146.091.231.25.19.356s.051.316.2.469a.919.919,0,0,1,.278.478.2.2,0,0,0,.194.2c.116,0,.23.188.282.467.048.257.142.433.209.392s.158.115.2.347a.747.747,0,0,0,.266.491.273.273,0,0,1,.182.213.8.8,0,0,0,.21.375,1.031,1.031,0,0,1,.239.427.987.987,0,0,0,.259.424c.126.126.2.277.164.334s.055.213.2.345a.777.777,0,0,1,.264.4.546.546,0,0,0,.2.33.61.61,0,0,1,.2.411.458.458,0,0,0,.209.361c.18.1.274.318.315.732.006.055.094.1.2.1s.224.2.274.468.132.468.184.468c.1,0,.306.351.566.97.086.2.239.367.343.367a.2.2,0,0,1,.188.213A2.378,2.378,0,0,0,101,59.545a.484.484,0,0,1,.218.334c-.043.343.022.491.213.491.126,0,.2.127.2.339a.463.463,0,0,0,.2.416.312.312,0,0,1,.2.257.382.382,0,0,0,.188.286.59.59,0,0,1,.233.375,2.324,2.324,0,0,0,.355.7c.17.239.272.495.227.568s.007.133.117.133.22.135.245.3.12.286.21.267c.14-.028.234.323.18.668-.009.055.075.1.188.1s.237.164.282.393a.693.693,0,0,0,.264.464.379.379,0,0,1,.186.343c0,.149.055.272.123.272s.163.18.211.4.169.4.268.4.249.21.334.468.2.468.264.468.149.162.2.359a1.037,1.037,0,0,0,.279.5.763.763,0,0,1,.233.44.815.815,0,0,0,.158.4c.063.057.065.019,0-.084-.073-.126-.059-.156.046-.092a.366.366,0,0,1,.154.278.63.63,0,0,0,.168.36,5.524,5.524,0,0,1,.524.913,5.547,5.547,0,0,0,.7,1.11,1.266,1.266,0,0,1,.346.638.375.375,0,0,0,.187.337.8.8,0,0,1,.274.53c.047.253.159.459.248.459s.3.3.468.668.36.669.425.669c.1,0,.325.493.3.668-.006.037.076.115.181.174a.385.385,0,0,1,.191.294.4.4,0,0,0,.2.3.66.66,0,0,1,.229.475c.017.2.08.363.142.363s.2.211.306.468.255.468.327.468.132.112.132.251a.618.618,0,0,0,.2.417.558.558,0,0,1,.2.351c0,.1.058.184.128.184.217,0,.385.45.311.835-.038.2-.116.336-.173.3s-.142.14-.189.389a1.253,1.253,0,0,1-.282.617.7.7,0,0,0-.2.481c0,.175-.071.3-.158.285s-.221.147-.3.367a1.205,1.205,0,0,1-.31.508.657.657,0,0,0-.169.487c0,.215-.087.414-.2.457a.381.381,0,0,0-.2.342.518.518,0,0,1-.234.4c-.128.075-.181.138-.117.14s.055.079-.022.171a.606.606,0,0,0-.162.5c0,.074-.094.134-.209.134s-.168.064-.118.146-.037.319-.193.529a1.435,1.435,0,0,0-.283.656.912.912,0,0,1-.261.533.693.693,0,0,0-.211.522.255.255,0,0,1-.207.328.357.357,0,0,0-.257.33.636.636,0,0,1-.2.43.707.707,0,0,0-.2.485c0,.178-.071.3-.162.284s-.222.206-.3.5a2.037,2.037,0,0,1-.306.712.722.722,0,0,0-.172.439.378.378,0,0,1-.2.339c-.118.045-.2.245-.2.486,0,.225-.039.369-.088.321-.172-.173-.444.208-.367.516a.346.346,0,0,1-.2.457.528.528,0,0,0-.279.4.364.364,0,0,1-.2.325.444.444,0,0,0-.2.4.7.7,0,0,1-.187.477,1.071,1.071,0,0,0-.27.485c-.047.189-.18.33-.314.33-.2,0-.2.021-.031.132q.2.13.034.132c-.092,0-.167.146-.167.322a.442.442,0,0,1-.2.4.443.443,0,0,0-.2.4.442.442,0,0,1-.188.4.729.729,0,0,0-.276.472,1.188,1.188,0,0,1-.28.561.612.612,0,0,0-.192.414.372.372,0,0,1-.2.332c-.11.043-.177.116-.149.163.1.164-.184.705-.322.62-.076-.047-.127-.036-.114.025.026.117-.067.389-.367,1.066a2.263,2.263,0,0,0-.186.576c0,.085-.057.12-.127.076s-.167.134-.215.393-.168.472-.274.472a.214.214,0,0,0-.2.2,2.667,2.667,0,0,1-.051.334,2.642,2.642,0,0,0-.05.267c-.01.074-.107.134-.217.134s-.193.045-.185.1c.059.375-.043.836-.187.836-.094,0-.184.159-.2.353a.8.8,0,0,1-.249.514.83.83,0,0,0-.258.516,1.089,1.089,0,0,1-.248.566.762.762,0,0,0-.209.453.359.359,0,0,1-.2.32.457.457,0,0,0-.2.411.555.555,0,0,1-.267.477.555.555,0,0,0-.268.458.434.434,0,0,1-.2.392.468.468,0,0,0-.2.42.466.466,0,0,1-.2.42.463.463,0,0,0-.2.416.706.706,0,0,1-.233.51.688.688,0,0,0-.241.482c0,.172-.074.3-.157.282s-.189.145-.236.359a1.16,1.16,0,0,1-.278.548.581.581,0,0,0-.192.39.8.8,0,0,1-.268.472.951.951,0,0,0-.267.631c0,.228-.056.354-.136.3s-.172.1-.219.338a.746.746,0,0,1-.266.491c-.1.038-.181.245-.181.46a.493.493,0,0,1-.211.472,1.481,1.481,0,0,0-.518.846,2.967,2.967,0,0,1-.183.367c-.091.166-.125.3-.075.3s0,.106-.113.234a1.726,1.726,0,0,0-.3.535c-.05.165-.146.3-.212.3s-.174.195-.24.434-.174.424-.243.411-.137.077-.151.2c-.059.52-.124.719-.257.8a.632.632,0,0,0-.2.357c-.031.147-.132.25-.225.23s-.134.021-.091.091a.162.162,0,0,1-.066.217.238.238,0,0,0-.072.279.539.539,0,0,1-.191.455.917.917,0,0,0-.265.536.386.386,0,0,1-.2.348.424.424,0,0,0-.2.383.422.422,0,0,1-.2.383c-.375.144-.258,1.06.161,1.255.494.229,26.243.246,26.243.017,0-.111.047-.111.18,0,.234.194,23.74.282,23.705.089-.012-.071.053-.138.145-.151l.3-.039c.074-.01.134-.109.134-.221a.322.322,0,0,1,.192-.278.688.688,0,0,0,.276-.453.688.688,0,0,1,.276-.452c.108-.042.192-.249.192-.479s.062-.405.137-.405.209-.166.3-.368a2.314,2.314,0,0,1,.331-.544.9.9,0,0,0,.184-.726c-.009-.055.055-.085.143-.067s.185-.086.217-.231a.931.931,0,0,1,.275-.444c.12-.1.137-.138.038-.087-.128.066-.115-.007.041-.245a1.244,1.244,0,0,1,.416-.414c.109-.042.193-.249.193-.479s.059-.405.13-.405.18-.2.242-.435.162-.415.223-.39c.154.063.336-.258.339-.6a.405.405,0,0,1,.2-.363.392.392,0,0,0,.2-.353.394.394,0,0,1,.2-.353.372.372,0,0,0,.2-.334.366.366,0,0,1,.189-.33.679.679,0,0,0,.278-.429.885.885,0,0,1,.236-.448.644.644,0,0,0,.193-.4,1.18,1.18,0,0,1,.244-.522.8.8,0,0,0,.2-.446.34.34,0,0,1,.188-.3.665.665,0,0,0,.276-.422,1.027,1.027,0,0,1,.278-.492.794.794,0,0,0,.235-.454.724.724,0,0,1,.169-.4,2.7,2.7,0,0,0,.6-.981.843.843,0,0,1,.332-.43c.107-.042.191-.25.191-.479,0-.271.067-.405.2-.405.111,0,.188-.045.171-.1a4.647,4.647,0,0,1,.836-1.638c.071,0,.13-.114.13-.253a.372.372,0,0,1,.2-.33.468.468,0,0,0,.2-.42,1.09,1.09,0,0,1,.267-.631.971.971,0,0,0,.268-.462c0-.1.054-.176.119-.176.116,0,.347-.636.3-.836-.012-.055.052-.085.142-.067s.185-.106.211-.276a.516.516,0,0,1,.237-.381c.1-.04.158-.123.121-.184a.149.149,0,0,1,.07-.2.156.156,0,0,0,.06-.21c-.043-.069.013-.16.124-.2a.691.691,0,0,0,.285-.457,1.139,1.139,0,0,1,.275-.541.6.6,0,0,0,.192-.41.228.228,0,0,1,.19-.251c.1,0,.23-.184.28-.41a.743.743,0,0,1,.278-.482c.1-.039.15-.132.105-.2s.046-.3.2-.515a1.6,1.6,0,0,0,.283-.506.532.532,0,0,1,.2-.289.59.59,0,0,0,.2-.387.751.751,0,0,1,.267-.451.85.85,0,0,0,.268-.564c0-.209.075-.336.2-.336s.2-.124.2-.318a.707.707,0,0,1,.2-.485.536.536,0,0,0,.2-.3,4.585,4.585,0,0,1,.468-.9,3.669,3.669,0,0,0,.468-.982.491.491,0,0,1,.268-.355.482.482,0,0,0,.267-.33.694.694,0,0,1,.205-.391.674.674,0,0,0,.2-.31c-.007-.233.153-.573.27-.573.068,0,.124-.151.124-.335s.053-.334.117-.334.2-.195.294-.434a1.39,1.39,0,0,1,.351-.541.562.562,0,0,0,.175-.435c0-.2.076-.327.2-.327.141,0,.2-.143.2-.482,0-.36.047-.464.188-.411.12.047.218-.045.27-.253.045-.179.136-.326.2-.326s.161-.185.21-.41a.759.759,0,0,1,.249-.471.493.493,0,0,0,.186-.391,1.132,1.132,0,0,1,.3-.6.894.894,0,0,0,.269-.469c0-.111.055-.2.12-.2.157,0,.42-.752.3-.869-.049-.05,0-.07.108-.045s.216-.078.247-.286a1.053,1.053,0,0,1,.3-.55.732.732,0,0,0,.254-.443.343.343,0,0,1,.2-.3.424.424,0,0,0,.2-.383.424.424,0,0,1,.2-.383c.117-.045.2-.245.2-.482s.064-.391.155-.371c.4.085.508-1.638.131-2a1.458,1.458,0,0,1-.336-.606c-.049-.2-.148-.368-.22-.368s-.131-.092-.131-.2a.322.322,0,0,0-.193-.278.708.708,0,0,1-.278-.464c-.047-.215-.167-.39-.266-.39s-.2-.136-.226-.3-.12-.286-.21-.268-.156-.011-.148-.067c.059-.372-.045-.7-.22-.7-.121,0-.237-.168-.286-.412a.74.74,0,0,0-.252-.478.612.612,0,0,1-.251-.389c-.045-.179-.14-.325-.213-.325s-.132-.107-.132-.237a.761.761,0,0,0-.267-.467.738.738,0,0,1-.267-.4,1.629,1.629,0,0,0-.4-.611,1.605,1.605,0,0,1-.4-.62c0-.312-.156-.606-.282-.529-.066.041-.12-.008-.12-.109a.971.971,0,0,0-.268-.47,1.012,1.012,0,0,1-.267-.56c0-.15-.055-.258-.123-.24s-.3-.3-.525-.7-.466-.72-.545-.7-.144-.119-.144-.3a.462.462,0,0,0-.2-.416.317.317,0,0,1-.2-.265,2.961,2.961,0,0,0-.468-.853,2.885,2.885,0,0,1-.468-.868.2.2,0,0,0-.2-.2.23.23,0,0,1-.2-.251.614.614,0,0,0-.2-.413,1.1,1.1,0,0,1-.283-.451,1.617,1.617,0,0,0-.259-.489,1.231,1.231,0,0,1-.225-.468c-.031-.147-.127-.253-.215-.234s-.159-.087-.159-.233-.087-.268-.194-.268-.23-.188-.282-.467c-.048-.257-.145-.431-.216-.387s-.16-.043-.2-.193a.545.545,0,0,0-.258-.343c-.105-.04-.188-.254-.188-.485s-.045-.386-.1-.352c-.1.059-.443-.238-.437-.376.015-.374-.026-.471-.2-.471a.2.2,0,0,1-.2-.206,2.868,2.868,0,0,0-.726-1.153.532.532,0,0,1-.157-.313,1.076,1.076,0,0,0-.243-.456.789.789,0,0,1-.211-.389.184.184,0,0,0-.2-.156.234.234,0,0,1-.2-.257c0-.4-.144-.679-.348-.679-.107,0-.187-.136-.187-.318a.707.707,0,0,0-.2-.485.537.537,0,0,1-.2-.284.966.966,0,0,0-.272-.389c-.15-.15-.239-.326-.2-.392s-.037-.2-.172-.3a1.094,1.094,0,0,1-.335-.419c-.05-.133-.152-.2-.229-.157s-.129.036-.119-.025c.064-.368-.038-.712-.213-.712-.124,0-.2-.126-.2-.327a.693.693,0,0,0-.258-.507,1.078,1.078,0,0,1-.348-.541c-.05-.2-.144-.327-.21-.287s-.12-.051-.12-.205a.4.4,0,0,0-.2-.356.37.37,0,0,1-.2-.33.232.232,0,0,0-.212-.253c-.116,0-.185-.075-.154-.168s-.083-.3-.256-.461a.982.982,0,0,1-.314-.573.394.394,0,0,0-.2-.355.375.375,0,0,1-.2-.335.374.374,0,0,0-.2-.334c-.11-.043-.166-.131-.126-.2s.01-.12-.067-.12-.141-.092-.141-.2a.32.32,0,0,0-.188-.278.675.675,0,0,1-.278-.428,1.1,1.1,0,0,0-.179-.425,4.134,4.134,0,0,1-.749-1.176c-.052-.164-.151-.266-.219-.223s-.124-.023-.124-.144a1.22,1.22,0,0,0-.266-.558c-.146-.185-.233-.391-.193-.456s-.016-.118-.125-.118-.268-.211-.353-.468-.209-.468-.278-.468a.144.144,0,0,1-.124-.156.794.794,0,0,0-.21-.389,1.079,1.079,0,0,1-.244-.456.507.507,0,0,0-.168-.313,1.588,1.588,0,0,1-.319-.514c-.1-.234-.233-.4-.29-.36s-.105-.03-.105-.148a.336.336,0,0,0-.2-.29.359.359,0,0,1-.2-.32.742.742,0,0,0-.2-.444.672.672,0,0,1-.2-.314.784.784,0,0,0-.268-.343.789.789,0,0,1-.267-.5.39.39,0,0,0-.2-.35.316.316,0,0,1-.2-.263.8.8,0,0,0-.234-.426,1.166,1.166,0,0,1-.28-.5.572.572,0,0,0-.219-.36.8.8,0,0,1-.258-.44c-.047-.188-.144-.3-.216-.261s-.13-.031-.13-.168c0-.243-.235-.619-.7-1.12a.871.871,0,0,1-.233-.383c0-.084-8.9-.132-25.135-.134-17.664,0-25.134.039-25.134.138m224.1,24.525c-.165.087-.273.185-.24.218s-.069.071-.226.082a1.613,1.613,0,0,0-.658.3,1.549,1.549,0,0,1-.489.274,4.336,4.336,0,0,0-.022,2.147c.083.156.183.251.221.213s.229-.01.422.064c.379.144,1.275.039,1.167-.137-.1-.156.631-.654,1-.685.876-.074,1.46.007,1.46.2,0,.11.067.2.15.2.11,0,.111.047,0,.18-.082.1-.116.212-.077.251.114.113-.863.261-1.033.156-.1-.062-.115-.034-.043.083s.048.153-.12.089c-.136-.052-.2-.034-.148.044s-.043.14-.194.149a1.086,1.086,0,0,0-.805.284c-.671.473-.367,1.972.4,1.972.144,0,.262.081.262.18,0,.124.215.186.7.2a1.27,1.27,0,0,1,.85.222.528.528,0,0,0,.367.2c.168,0,.219.129.219.549s-.042.533-.2.472c-.179-.069-.262.063-.216.349.036.233-2.823.11-3-.128s-1.533-.386-1.533-.152c0,.071-.059.093-.132.048s-.1.006-.053.126.014.207-.068.207-.148.3-.148.8c0,.823.276,1.337.719,1.337a.554.554,0,0,1,.351.2c.136.164.574.2,2.36.2,1.827,0,2.207-.034,2.271-.2a.429.429,0,0,1,.387-.2.827.827,0,0,0,.511-.2.66.66,0,0,1,.343-.2c.079,0,.144-.12.144-.267s.089-.268.2-.268a.222.222,0,0,0,.2-.237.753.753,0,0,1,.266-.464,3.46,3.46,0,0,0-.036-2.7c-.126-.092-.229-.217-.229-.276a.739.739,0,0,0-.189-.32c-.318-.358-.327-1.214-.012-1.214A5.718,5.718,0,0,0,316.2,60.3a1,1,0,0,1-.264-.409c-.067-.176-.214-.322-.326-.322a.2.2,0,0,1-.2-.192c0-.119-.165-.208-.434-.234-.239-.022-.415-.1-.391-.17.116-.344-2.936-.464-3.552-.14m11.322.083a.557.557,0,0,1-.468.252.456.456,0,0,0-.411.2.319.319,0,0,1-.268.2.316.316,0,0,0-.266.2.571.571,0,0,1-.33.277c-.14.044-.255.139-.255.21a1.547,1.547,0,0,1-.4.521,1.326,1.326,0,0,0-.4.6.332.332,0,0,1-.2.286c-.11.043-.167.131-.126.2s.01.12-.067.12-.142.243-.142.54a1.85,1.85,0,0,1-.193.836,2.524,2.524,0,0,0-.142,1.365c.06,1.292.08,1.412.223,1.323.088-.054.185.89.133,1.3-.006.047.107.191.251.322a.779.779,0,0,1,.262.456,3.022,3.022,0,0,0,1.175,1.21.546.546,0,0,1,.3.2c.232.279,3.562.234,3.5-.047-.02-.1.01-.15.067-.116.187.111.705-.162.705-.371a.2.2,0,0,1,.2-.205.2.2,0,0,0,.2-.2.33.33,0,0,1,.2-.282c.11-.042.175-.116.145-.164a1.219,1.219,0,0,1,.15-.554,3.628,3.628,0,0,0,.29-1.536c0-.148-.016-.433-.024-.635s-.065-.367-.128-.367-.079-.056-.037-.124a.156.156,0,0,0-.062-.21.154.154,0,0,1-.064-.2c.041-.066-.048-.242-.2-.392a1,1,0,0,1-.272-.379,3.064,3.064,0,0,0-1-.99,1.475,1.475,0,0,1-.488-.255,1.852,1.852,0,0,0-1.111-.253c-.831,0-.868-.132-.133-.48.254-.121.462-.273.462-.338a3.761,3.761,0,0,1,1.316-.119c1.155,0,1.347-.034,1.563-.273a1.363,1.363,0,0,0,.127-1.467c-.109-.121-.159-.261-.11-.31s-.007-.09-.126-.09a.581.581,0,0,1-.39-.249c-.265-.379-3.255-.381-3.458,0m7.29.031a8.462,8.462,0,0,1-.7.647,2.193,2.193,0,0,0-.568.71c-.073.193-.184.319-.247.281s-.119.113-.125.337a1.656,1.656,0,0,1-.221.726c-.255.388-.317,5.008-.067,5.008.078,0,.1.06.059.133s-.019.134.059.134.142.173.142.385a.815.815,0,0,0,.2.551.535.535,0,0,1,.2.291,3.061,3.061,0,0,0,1.008,1.179.541.541,0,0,1,.329.2c.132.159.513.2,1.825.2,1.352,0,1.673-.037,1.736-.2a.366.366,0,0,1,.326-.2c.241,0,.615-.486.549-.713-.018-.062.09-.144.239-.183a.358.358,0,0,0,.271-.309.358.358,0,0,1,.2-.314.43.43,0,0,0,.2-.39,1.111,1.111,0,0,1,.2-.572,15.524,15.524,0,0,0,.01-5.132,1.4,1.4,0,0,1-.227-.7c-.022-.334-.087-.462-.207-.416s-.174-.039-.174-.215c0-.161-.086-.282-.2-.282a.2.2,0,0,1-.2-.2.327.327,0,0,0-.2-.282.318.318,0,0,1-.2-.263c0-.107-.135-.187-.318-.187a.364.364,0,0,1-.383-.244c-.106-.4-3.142-.384-3.514.023m2.6,2.616c.141.141.23.283.2.316-.116.116.217.78.349.7.237-.147.172,3.094-.068,3.374-.111.129-.191.266-.178.3.057.158-.314.668-.432.6-.071-.044-.114,0-.093.1.085.412-1.191.3-1.295-.116a.945.945,0,0,0-.22-.451c-.4-.249-.477-3.935-.082-4.155a.47.47,0,0,0,.229-.362c0-.582,1.1-.789,1.593-.3m-9.08,3.488a.158.158,0,0,0,.167.137c.329.006.687,1.033.445,1.275a.778.778,0,0,0-.211.469c0,.468-1.209.363-1.579-.138-.48-.65-.161-1.875.4-1.529.063.038.149-.024.193-.139.087-.229.586-.293.586-.075"
        transform="translate(-17.133 -6.76)"
    />
    <path
        d="M29.564,3.868a.2.2,0,0,1-.2.2c-.139,0-.2.139-.2.452,0,.339-.067.469-.267.522a.357.357,0,0,0-.267.333.636.636,0,0,1-.2.43.554.554,0,0,0-.2.351.194.194,0,0,1-.2.184c-.131,0-.2.131-.2.371a.889.889,0,0,1-.268.6.784.784,0,0,0-.267.5c0,.149-.089.269-.2.269a.2.2,0,0,0-.2.189,2.6,2.6,0,0,1-.625,1.182.937.937,0,0,0-.241.49.7.7,0,0,1-.278.463.443.443,0,0,0-.193.4.443.443,0,0,1-.2.4.426.426,0,0,0-.2.383.627.627,0,0,1-.267.473c-.147.091-.267.231-.267.309a.664.664,0,0,1-.2.343.754.754,0,0,0-.2.459.235.235,0,0,1-.2.257c-.139,0-.2.14-.2.452,0,.34-.067.47-.268.522a.365.365,0,0,0-.267.4.454.454,0,0,1-.2.409.321.321,0,0,0-.2.268.321.321,0,0,1-.2.267.428.428,0,0,0-.2.386.824.824,0,0,1-.267.537.77.77,0,0,0-.268.484.371.371,0,0,1-.2.331c-.117.045-.2.245-.2.482,0,.271-.066.405-.2.405a.2.2,0,0,0-.2.2.322.322,0,0,1-.192.278.688.688,0,0,0-.276.453.688.688,0,0,1-.276.452.443.443,0,0,0-.192.4.446.446,0,0,1-.2.4c-.117.045-.2.245-.2.482,0,.275-.066.405-.205.405a.36.36,0,0,0-.293.234,1.425,1.425,0,0,1-.263.411.69.69,0,0,0-.175.42.361.361,0,0,1-.2.32c-.117.045-.2.245-.2.482,0,.259-.068.406-.188.406-.1,0-.255.165-.339.367a4.123,4.123,0,0,1-.662,1.141.591.591,0,0,0-.149.36.746.746,0,0,1-.267.44.772.772,0,0,0-.267.483.371.371,0,0,1-.2.331c-.117.045-.2.245-.2.482,0,.271-.067.406-.2.406-.111,0-.2.119-.2.267s-.062.267-.137.267-.209.166-.3.368a1.291,1.291,0,0,1-.331.474.547.547,0,0,0-.17.42.433.433,0,0,1-.2.391c-.117.045-.2.245-.2.482,0,.267-.067.405-.2.405-.108,0-.353.33-.545.736a1.966,1.966,0,0,1-.472.735c-.068,0-.124.174-.124.386,0,.273-.078.406-.267.456a.363.363,0,0,0-.267.4.457.457,0,0,1-.2.41c-.117.045-.2.245-.2.482,0,.271-.067.405-.2.405-.111,0-.2.119-.2.267s-.086.268-.19.268-.229.175-.276.39a.7.7,0,0,1-.278.464c-.109.042-.193.249-.193.479,0,.271-.067.405-.2.405s-.2.134-.2.4-.067.4-.2.4a.36.36,0,0,0-.294.234,1.409,1.409,0,0,1-.263.411.715.715,0,0,0-.175.439.377.377,0,0,1-.2.339.5.5,0,0,0-.2.448c0,.259-.081.392-.267.441s-.267.182-.267.421a.478.478,0,0,1-.2.428.306.306,0,0,0-.2.247.549.549,0,0,1-.2.336.707.707,0,0,0-.2.485c0,.185-.079.318-.19.318s-.229.176-.276.39a.7.7,0,0,1-.278.464c-.109.042-.193.25-.193.479,0,.271-.067.406-.2.406s-.2.126-.2.333a.636.636,0,0,1-.267.5c-.148.092-.268.237-.268.322a.3.3,0,0,1-.2.231c-.117.045-.2.245-.2.482,0,.271-.066.405-.2.405s-.2.134-.2.4-.068.4-.187.4c-.548,0-1.063,2.428-.557,2.622a.708.708,0,0,1,.278.464c.047.215.171.39.276.39s.189.12.189.268.089.267.2.267c.135,0,.2.134.2.405,0,.237.083.437.2.482a.3.3,0,0,1,.2.231c0,.085.12.229.268.322a.636.636,0,0,1,.267.5c0,.207.076.333.2.333s.2.126.2.328a.567.567,0,0,0,.17.434,1.307,1.307,0,0,1,.333.441,2.64,2.64,0,0,0,.667.976.562.562,0,0,1,.168.428.56.56,0,0,0,.17.428,1.291,1.291,0,0,1,.331.474c.088.2.222.368.3.368s.136.12.136.267.089.267.2.267c.135,0,.2.135.2.406,0,.237.083.437.2.482a.315.315,0,0,1,.2.263c0,.1.12.186.268.186.217,0,.267.089.267.468,0,.327.06.468.2.468.124,0,.2.125.2.327a.569.569,0,0,0,.17.435,1.553,1.553,0,0,1,.367.5c.4.785.465.879.63.879.1,0,.169.168.169.406s.083.437.2.482a.3.3,0,0,1,.2.231c0,.084.12.229.267.321a.638.638,0,0,1,.267.5c0,.207.076.334.2.334s.2.132.2.387c0,.221.087.42.2.464a.308.308,0,0,1,.2.249.539.539,0,0,0,.268.339.594.594,0,0,1,.267.438.387.387,0,0,0,.2.347.444.444,0,0,1,.2.4.445.445,0,0,0,.2.4.3.3,0,0,1,.2.237.981.981,0,0,0,.267.448.968.968,0,0,1,.268.493.2.2,0,0,0,.2.206c.123,0,.2.125.2.324a.847.847,0,0,0,.2.525.674.674,0,0,1,.2.323.826.826,0,0,0,.267.364.813.813,0,0,1,.267.489.228.228,0,0,0,.2.247c.116,0,.2.121.2.287a2.056,2.056,0,0,0,.468.858,2.181,2.181,0,0,1,.468.786.339.339,0,0,0,.2.293.446.446,0,0,1,.2.4.446.446,0,0,0,.2.4.315.315,0,0,1,.2.258.48.48,0,0,0,.267.325.553.553,0,0,1,.268.472c0,.2.076.33.2.33s.2.124.2.318a.707.707,0,0,0,.2.485.54.54,0,0,1,.2.318c0,.083.12.227.267.319a.636.636,0,0,1,.267.5c0,.207.076.333.2.333s.2.126.2.328a.558.558,0,0,0,.177.434.767.767,0,0,1,.263.341.354.354,0,0,0,.291.234c.139,0,.2.131.2.405,0,.237.083.437.2.482a.445.445,0,0,1,.2.4.444.444,0,0,0,.2.4.314.314,0,0,1,.2.259.48.48,0,0,0,.267.324.555.555,0,0,1,.268.473c0,.2.076.329.2.329s.2.124.2.318a.7.7,0,0,0,.2.484.558.558,0,0,1,.2.351c0,.1.12.185.267.185.217,0,.267.089.267.468,0,.327.061.468.2.468s.2.127.2.339a.461.461,0,0,0,.2.415.316.316,0,0,1,.2.262.541.541,0,0,0,.268.352.627.627,0,0,1,.267.473.424.424,0,0,0,.2.383.432.432,0,0,1,.2.39.536.536,0,0,0,.177.42.768.768,0,0,1,.263.341.355.355,0,0,0,.29.234c.139,0,.205.13.205.4s.067.4.2.4a.235.235,0,0,1,.2.257.754.754,0,0,0,.2.459.7.7,0,0,1,.2.41c0,.121.113.21.267.21.217,0,.267.089.267.468,0,.326.061.468.2.468s.2.127.2.339a.457.457,0,0,0,.188.41.53.53,0,0,1,.255.33.333.333,0,0,0,.28.258c.148,0,.213.124.213.405,0,.237.083.437.2.482a.445.445,0,0,1,.2.4.442.442,0,0,0,.188.4.522.522,0,0,1,.254.33.335.335,0,0,0,.281.258c.148,0,.213.124.213.4,0,.253.068.4.184.4s.217.12.255.268c.07.266.157.267,25.384.233l25.314-.034.04-.635c.033-.5,0-.635-.167-.635a.235.235,0,0,1-.208-.257c0-.4-.144-.679-.348-.679-.118,0-.187-.147-.187-.4s-.067-.4-.2-.4a.232.232,0,0,1-.2-.253.37.37,0,0,0-.2-.33.383.383,0,0,1-.2-.343.528.528,0,0,0-.267-.41.565.565,0,0,1-.267-.54c0-.263-.067-.4-.2-.4s-.2-.134-.2-.4c0-.221-.059-.4-.132-.4s-.22-.211-.327-.468-.258-.468-.336-.468-.14-.12-.14-.267-.089-.267-.2-.267q-.2,0-.2-.4c0-.268-.067-.4-.2-.4-.111,0-.2-.119-.2-.268a.925.925,0,0,0-.267-.534.887.887,0,0,1-.268-.452.552.552,0,0,0-.2-.351.623.623,0,0,1-.2-.418c0-.138-.083-.251-.185-.251s-.223-.2-.274-.468-.166-.468-.282-.468-.194-.132-.194-.339a.463.463,0,0,0-.2-.416.363.363,0,0,1-.2-.322.429.429,0,0,0-.142-.333.978.978,0,0,1-.264-.409c-.067-.176-.214-.321-.326-.321-.144,0-.2-.138-.2-.468s-.06-.468-.2-.468c-.124,0-.2-.125-.2-.327a.557.557,0,0,0-.177-.435.763.763,0,0,1-.263-.341.354.354,0,0,0-.29-.233c-.145,0-.205-.137-.205-.468s-.06-.468-.2-.468c-.125,0-.2-.127-.2-.339a.462.462,0,0,0-.192-.412.724.724,0,0,1-.281-.472.72.72,0,0,0-.275-.471.306.306,0,0,1-.188-.258.2.2,0,0,0-.2-.187c-.135,0-.2-.134-.2-.405,0-.229-.083-.437-.193-.479a.723.723,0,0,1-.28-.473.724.724,0,0,0-.264-.466.615.615,0,0,1-.257-.392c-.045-.178-.141-.324-.213-.324s-.131-.123-.131-.272a.38.38,0,0,0-.185-.343.687.687,0,0,1-.264-.464c-.046-.229-.164-.393-.283-.393-.137,0-.2-.131-.2-.405,0-.237-.083-.437-.2-.482a.321.321,0,0,1-.2-.267.319.319,0,0,0-.2-.268.454.454,0,0,1-.2-.409.364.364,0,0,0-.267-.4c-.19-.05-.267-.182-.267-.46,0-.223-.086-.422-.2-.466a.362.362,0,0,1-.2-.321.69.69,0,0,0-.175-.42,1.4,1.4,0,0,1-.263-.411.359.359,0,0,0-.294-.233c-.138,0-.2-.13-.2-.4s-.067-.4-.2-.4-.2-.135-.2-.406c0-.237-.083-.437-.2-.482a.3.3,0,0,1-.2-.242.79.79,0,0,0-.267-.408.811.811,0,0,1-.268-.489.228.228,0,0,0-.2-.247c-.134,0-.2-.134-.2-.405,0-.229-.083-.437-.192-.479a.708.708,0,0,1-.278-.464c-.047-.215-.171-.39-.276-.39s-.189-.132-.189-.318a.708.708,0,0,0-.2-.484.544.544,0,0,1-.2-.337.307.307,0,0,0-.2-.246.477.477,0,0,1-.2-.428c0-.238-.086-.373-.268-.42s-.267-.183-.267-.456c0-.212-.056-.386-.124-.386a1.977,1.977,0,0,1-.472-.735c-.191-.405-.436-.736-.545-.736-.129,0-.2-.137-.2-.4s-.067-.4-.2-.4-.2-.125-.2-.325a.836.836,0,0,0-.168-.5,2.341,2.341,0,0,1-.331-.544c-.09-.2-.224-.368-.3-.368s-.136-.12-.136-.267-.089-.267-.2-.267c-.135,0-.2-.135-.2-.406,0-.229-.083-.437-.193-.479a.706.706,0,0,1-.278-.464c-.047-.214-.171-.39-.275-.39s-.19-.114-.19-.253a.37.37,0,0,0-.2-.33.463.463,0,0,1-.2-.416c0-.212-.075-.339-.2-.339a.234.234,0,0,1-.2-.256c0-.4-.144-.679-.348-.679-.118,0-.187-.148-.187-.4s-.067-.4-.2-.4c-.111,0-.2-.119-.2-.268s-.083-.267-.183-.267c-.224,0-.384-.873-.267-1.457.045-.229.165-.415.266-.415s.184-.148.184-.387c0-.22.087-.42.2-.464s.2-.243.2-.466c0-.278.078-.41.268-.46s.267-.183.267-.421a.474.474,0,0,1,.2-.428c.115-.044.2-.244.2-.464,0-.255.068-.387.2-.387a.228.228,0,0,0,.2-.246.813.813,0,0,1,.267-.489.816.816,0,0,0,.272-.456,1.012,1.012,0,0,1,.2-.472,1.112,1.112,0,0,0,.2-.573.432.432,0,0,1,.2-.39.316.316,0,0,0,.2-.263.884.884,0,0,1,.267-.453.894.894,0,0,0,.267-.478.7.7,0,0,1,.2-.41.754.754,0,0,0,.2-.459.235.235,0,0,1,.2-.257c.14,0,.2-.141.2-.468s.063-.468.19-.468c.1,0,.229-.176.276-.39a.7.7,0,0,1,.278-.464c.107-.041.193-.248.193-.465s.086-.424.2-.468a.426.426,0,0,0,.2-.383.627.627,0,0,1,.267-.473.636.636,0,0,0,.268-.485.439.439,0,0,1,.2-.4c.117-.045.2-.245.2-.482,0-.271.066-.405.2-.405s.2-.13.2-.369a.632.632,0,0,1,.267-.536.638.638,0,0,0,.267-.5c0-.207.076-.334.2-.334a.23.23,0,0,0,.2-.251.621.621,0,0,1,.2-.417.8.8,0,0,0,.2-.546.558.558,0,0,1,.268-.523c.147-.079.267-.205.267-.282a.66.66,0,0,1,.2-.339.828.828,0,0,0,.2-.509.692.692,0,0,1,.2-.475.558.558,0,0,0,.2-.351.884.884,0,0,1,.267-.452.914.914,0,0,0,.268-.521.37.37,0,0,1,.2-.33c.117-.045.2-.245.2-.482,0-.271.066-.405.2-.405s.2-.134.2-.4.067-.4.194-.4.229-.188.282-.468.167-.468.274-.468.185-.148.185-.405c0-.237.083-.437.2-.482s.2-.243.2-.464c0-.241.071-.387.187-.387.2,0,.348-.282.348-.679a.234.234,0,0,1,.2-.257c.134,0,.2-.134.2-.405,0-.237.083-.437.2-.482a.445.445,0,0,0,.2-.4.442.442,0,0,1,.193-.4,2.685,2.685,0,0,0,.743-1.311.313.313,0,0,1,.2-.259.39.39,0,0,0,.2-.349.932.932,0,0,1,.267-.539.89.89,0,0,0,.267-.477.706.706,0,0,1,.2-.411.733.733,0,0,0,.2-.444.363.363,0,0,1,.2-.321.462.462,0,0,0,.2-.416,1,1,0,0,1,.268-.606.924.924,0,0,0,.267-.535c0-.148.089-.267.2-.267.132,0,.2-.132.2-.387,0-.221.086-.42.2-.464s.2-.244.2-.467c0-.278.077-.41.267-.46s.268-.182.268-.421a.476.476,0,0,1,.2-.428c.114-.044.2-.243.2-.464,0-.255.068-.387.2-.387s.2-.14.2-.452c0-.34.067-.47.267-.522a.364.364,0,0,0,.267-.4.454.454,0,0,1,.2-.409.388.388,0,0,0,.2-.349c0-.149.059-.271.132-.271s.172-.166.221-.368a2.2,2.2,0,0,1,.337-.686,1.236,1.236,0,0,0,.247-.444.662.662,0,0,1,.2-.326.737.737,0,0,0,.2-.444.359.359,0,0,1,.2-.32c.117-.045.2-.245.2-.482,0-.262.067-.406.19-.406.1,0,.229-.175.275-.39a.708.708,0,0,1,.278-.464c.138-.053.193-.3.193-.88V3.667h-25.4c-22.49,0-25.4.022-25.4.2M161.085,66.229a2.307,2.307,0,0,1-.888.274c-.221,0-.42.086-.464.2a.467.467,0,0,1-.42.2.466.466,0,0,0-.42.2.325.325,0,0,1-.275.2c-.11,0-.23.12-.269.267s-.153.268-.255.268a.194.194,0,0,0-.185.2.2.2,0,0,1-.2.2c-.14,0-.2.141-.2.468s-.061.468-.2.468c-.445,0-.476,2.711-.035,2.958a.57.57,0,0,1,.233.462.454.454,0,0,0,.2.408.311.311,0,0,1,.2.254c0,.1.12.216.268.262s.267.171.267.277c0,.124.142.191.4.191s.4.067.4.2.141.2.468.2a1.063,1.063,0,0,1,.736.268c.22.22.446.267,1.275.267.772,0,1.024.047,1.084.2s.346.2,1.385.2,1.324.041,1.385.2c.052.137.267.2.683.2.434,0,.606.054.606.19,0,.1.176.229.39.275a.706.706,0,0,1,.464.278.323.323,0,0,0,.278.193c.164,0,.205.185.205.935,0,.847-.026.936-.268.936-.148,0-.267.089-.267.2a.194.194,0,0,1-.186.2.315.315,0,0,0-.263.2c-.045.116-.245.2-.473.2a1,1,0,0,0-.618.223c-.188.188-.532.223-2.194.223-1.624,0-2.028-.039-2.29-.223a1.39,1.39,0,0,0-.675-.223.485.485,0,0,1-.434-.2.311.311,0,0,0-.257-.2c-.392,0-1.032-.935-1.036-1.517-.007-.922-.312-1.157-1.507-1.157h-1l-.281.538c-.367.7-.432,4.492-.08,4.627a.372.372,0,0,1,.2.33.233.233,0,0,0,.21.253.7.7,0,0,1,.41.2c.27.27.939.257,1.1-.022.087-.157.3-.223.729-.223a1.218,1.218,0,0,1,.827.223,1.177,1.177,0,0,0,.771.222,1.282,1.282,0,0,1,.807.234c.225.2.557.234,2.57.234s2.345-.03,2.57-.234a1.29,1.29,0,0,1,.82-.234c.356,0,.588-.067.634-.185a.651.651,0,0,1,.441-.26,2.124,2.124,0,0,0,.808-.483,1.881,1.881,0,0,1,.557-.408c.066,0,.12-.091.12-.2a.2.2,0,0,1,.2-.2.2.2,0,0,0,.2-.205.323.323,0,0,1,.193-.278.683.683,0,0,0,.276-.452.683.683,0,0,1,.275-.452c.278-.107.285-3.424.007-3.424-.107,0-.224-.2-.274-.468s-.166-.468-.282-.468a.2.2,0,0,1-.195-.2.2.2,0,0,0-.2-.2c-.111,0-.2-.119-.2-.267s-.089-.268-.2-.268a.329.329,0,0,1-.282-.2.446.446,0,0,0-.4-.2.445.445,0,0,1-.4-.2.486.486,0,0,0-.434-.2.88.88,0,0,1-.586-.267c-.178-.209-.4-.268-1-.272a2.071,2.071,0,0,1-1.03-.2c-.2-.148-.673-.2-1.972-.2-1.433,0-1.713-.033-1.713-.2,0-.134-.133-.2-.4-.2a1.072,1.072,0,0,1-.668-.268.888.888,0,0,0-.468-.267c-.152,0-.2-.164-.2-.668s.049-.669.2-.669a.2.2,0,0,0,.2-.2c0-.124.126-.2.335-.2a.854.854,0,0,0,.565-.267c.18-.21.394-.267,1-.267s.772-.046.772-.2.141-.2.468-.2.468.06.468.2c0,.156.178.2.8.2s.862.059,1.069.267a.924.924,0,0,0,.535.267c.148,0,.267.089.267.2a.2.2,0,0,0,.2.2.2.2,0,0,1,.2.2.2.2,0,0,0,.2.2c.139,0,.2.14.2.457,0,.578.115.88.333.88.094,0,.2.12.241.267.059.228.182.268.83.268s.771-.04.83-.268c.038-.147.153-.267.255-.267s.187-.136.189-.3a1.122,1.122,0,0,1,.2-.561,3.129,3.129,0,0,0,.2-1.545,3.129,3.129,0,0,0-.2-1.545,1.031,1.031,0,0,1-.2-.494c-.012-.651-2.143-1.217-2.143-.568,0,.111-.119.2-.268.2s-.267-.089-.267-.2c0-.136-.136-.2-.424-.2a1.169,1.169,0,0,1-.682-.234c-.428-.387-4.783-.419-5.478-.039M191.8,66.06a.687.687,0,0,0-.374.257c-.073.125-.365.185-.907.185-.587,0-.82.053-.876.2-.047.122-.249.2-.514.2a.9.9,0,0,0-.6.2.636.636,0,0,1-.43.2.358.358,0,0,0-.331.258.522.522,0,0,1-.254.33c-.4.154-.23,1.131.282,1.629.536.521,1.988.693,2.155.256.051-.133.263-.2.63-.2.748,0,1.156-.125,1.156-.348,0-.141.239-.185,1.007-.185s1.025-.047,1.084-.2a.44.44,0,0,1,.4-.2c.2,0,.32.078.32.2,0,.15.161.2.648.2s.711.07.89.267a.835.835,0,0,0,.388.273,1.235,1.235,0,0,1,.474.4,1.106,1.106,0,0,0,.5.4c.126,0,.173.258.173.936v.936h-1.122c-.874,0-1.139-.045-1.2-.2s-.364-.2-1.552-.2c-1.222,0-1.474.034-1.474.2s-.231.2-1.275.2c-1.009,0-1.29.042-1.351.2-.045.116-.245.2-.476.2-.287,0-.419.075-.469.267-.038.147-.153.267-.255.267a.194.194,0,0,0-.184.2c0,.118-.124.2-.3.205-.3,0-1.036.549-1.036.771a.835.835,0,0,1-.267.361.786.786,0,0,0-.268.405.542.542,0,0,1-.2.33,1.073,1.073,0,0,0-.2.737c0,.384-.065.6-.2.648-.271.1-.274,1.407,0,1.764a1.342,1.342,0,0,1,.2.68c0,.247.087.452.2.5a.477.477,0,0,1,.2.428c0,.238.086.373.268.42.147.039.267.153.267.255a.194.194,0,0,0,.2.185c.111,0,.2.119.2.267s.083.267.186.267a.316.316,0,0,1,.263.2.336.336,0,0,0,.291.2.707.707,0,0,1,.415.2,1,1,0,0,0,.611.2.769.769,0,0,1,.582.234c.149.205.421.234,2.2.234s2.048-.029,2.2-.234a.846.846,0,0,1,.71-.234c.356,0,.566-.068.616-.2.045-.116.245-.2.473-.2a.969.969,0,0,0,.6-.2.7.7,0,0,1,.411-.2.89.89,0,0,0,.477-.267l.267-.267v.508c0,.8.078.829,2.5.829,1.818,0,2.2-.034,2.26-.2a.321.321,0,0,1,.267-.2.346.346,0,0,0,.277-.233.763.763,0,0,1,.263-.341c.248-.149.229-1.018-.023-1.115a.316.316,0,0,1-.2-.263c0-.459-.51-.721-1.4-.721h-.869V75.025c0-3.563-.036-4.378-.2-4.694a1.85,1.85,0,0,1-.2-.669c0-.5-.156-.887-.347-.887-.1,0-.185-.12-.185-.267s-.089-.267-.2-.267a.2.2,0,0,1-.2-.2.194.194,0,0,0-.185-.2c-.1,0-.216-.12-.254-.268a.343.343,0,0,0-.283-.267.208.208,0,0,1-.213-.2.2.2,0,0,0-.2-.2.331.331,0,0,1-.282-.2c-.045-.118-.245-.2-.487-.2a1.142,1.142,0,0,1-.667-.234,18.541,18.541,0,0,0-4.977-.208m60.254,0a.557.557,0,0,0-.382.253c-.043.112-.257.19-.526.19-.3,0-.454.064-.454.184,0,.1-.172.218-.384.261a1.96,1.96,0,0,0-.792.485,1.563,1.563,0,0,1-.552.408c-.079,0-.144.09-.144.2a.2.2,0,0,1-.2.2.2.2,0,0,0-.2.2.192.192,0,0,1-.179.2c-.1,0-.347.33-.551.735a2.143,2.143,0,0,1-.489.736c-.065,0-.118.18-.118.4a1.074,1.074,0,0,1-.267.668c-.208.208-.268.446-.268,1.062a1.832,1.832,0,0,1-.133.877,2.469,2.469,0,0,0,0,1.6,1.562,1.562,0,0,1,.133.8c0,.84.092,1.14.349,1.14.131,0,.186.174.186.587s.064.612.2.664a.331.331,0,0,1,.2.282.2.2,0,0,0,.2.2.2.2,0,0,1,.2.2.89.89,0,0,0,.267.468.882.882,0,0,1,.268.468c0,.111.056.2.125.2a1.871,1.871,0,0,1,.568.406,2.389,2.389,0,0,0,.744.483c.166.042.3.16.3.262s.135.186.314.186a.876.876,0,0,1,.556.267.937.937,0,0,0,.668.267,2.31,2.31,0,0,1,.862.217c.529.263,3.5.214,3.587-.059.029-.087.288-.158.576-.158a1.084,1.084,0,0,0,.791-.267.888.888,0,0,1,.468-.267.2.2,0,0,0,.2-.2c0-.124.126-.2.328-.2a.584.584,0,0,0,.464-.234c.1-.168.137.225.14,1.4a4.181,4.181,0,0,1-.132,1.638c-.075,0-.209.16-.3.355a3.99,3.99,0,0,1-1.292,1.382c-.079,0-.144.091-.144.2,0,.172-.432.2-3.083.2h-3.082l-.46.368a1.916,1.916,0,0,0-.152,2.416c.4.377,6.9.46,7.385.095a1.032,1.032,0,0,1,.494-.2.24.24,0,0,0,.233-.272c0-.217.089-.267.468-.267.327,0,.468-.06.468-.2a.2.2,0,0,1,.2-.2.2.2,0,0,0,.2-.2.208.208,0,0,1,.213-.2.342.342,0,0,0,.282-.267c.038-.148.153-.268.255-.268a.194.194,0,0,0,.185-.2.2.2,0,0,1,.2-.2.228.228,0,0,0,.2-.246.813.813,0,0,1,.267-.489c.2-.179.267-.412.267-.89s.051-.648.2-.648c.176,0,.2-.877.2-7.085V69.577h.718a2.048,2.048,0,0,0,1.721-.835,1.642,1.642,0,0,0-.065-1.8l-.3-.442H261.9c-2.505,0-2.784.066-2.784.665,0,.289-.471.227-.588-.077a.464.464,0,0,0-.415-.188.468.468,0,0,1-.42-.2c-.045-.117-.245-.2-.482-.2a.766.766,0,0,1-.577-.234,15.51,15.51,0,0,0-4.58-.209m31.306.037a.97.97,0,0,0-.375.264.827.827,0,0,1-.553.143c-.289,0-.493.075-.541.2a.365.365,0,0,1-.323.2.43.43,0,0,0-.333.142,1,1,0,0,1-.409.264c-.176.067-.321.214-.321.326a.205.205,0,0,1-.205.2.329.329,0,0,0-.282.2.316.316,0,0,1-.263.2.194.194,0,0,0-.186.2.2.2,0,0,1-.2.2c-.112,0-.2.119-.2.267s-.084.267-.188.267-.25.18-.327.4-.2.4-.28.4-.141.12-.141.268-.089.267-.2.267c-.136,0-.2.136-.2.424a1.174,1.174,0,0,1-.233.682c-.447.493-.408,5.445.042,5.445.134,0,.192.156.192.518a1.021,1.021,0,0,0,.2.685.557.557,0,0,1,.2.355.311.311,0,0,0,.193.262.706.706,0,0,1,.278.464c.047.214.171.39.275.39a.176.176,0,0,1,.19.154,3.426,3.426,0,0,0,1.243,1.183c.09,0,.238.12.33.267a.591.591,0,0,0,.433.267c.148,0,.266.09.266.2q0,.2.4.2c.268,0,.4.067.4.2,0,.152.163.2.662.2s.7.06.793.234c.115.206.363.234,2.09.234,1.711,0,1.98-.03,2.13-.234.12-.164.355-.234.791-.234.463,0,.621-.051.621-.2,0-.122.124-.2.318-.2a.707.707,0,0,0,.485-.2.556.556,0,0,1,.351-.2c.1,0,.184-.12.184-.267,0-.2.089-.267.338-.267a.5.5,0,0,0,.493-.344,1.349,1.349,0,0,1,.53-.537.975.975,0,0,0,.456-.525c.046-.183.167-.332.27-.332a.2.2,0,0,0,.186-.2.327.327,0,0,1,.2-.282c.114-.044.2-.244.2-.464,0-.242.07-.387.186-.387.213,0,.348-.284.348-.731a1.837,1.837,0,0,1,.2-.691,10.823,10.823,0,0,0,.006-4.268,1.558,1.558,0,0,1-.2-.773c0-.4-.064-.529-.272-.584s-.267-.182-.267-.522c0-.313-.062-.452-.2-.452a.227.227,0,0,1-.2-.246,1.081,1.081,0,0,0-.268-.556,1.182,1.182,0,0,1-.267-.421c0-.063-.091-.113-.2-.113a.2.2,0,0,1-.2-.2.2.2,0,0,0-.2-.2.2.2,0,0,1-.2-.2c0-.111-.119-.2-.267-.2s-.268-.089-.268-.2-.165-.237-.4-.284c-.221-.044-.4-.163-.4-.264s-.112-.184-.251-.184a.621.621,0,0,1-.417-.2.964.964,0,0,0-.637-.2.8.8,0,0,1-.641-.234,16.016,16.016,0,0,0-4.959-.172m-67.662.727a1.783,1.783,0,0,0-.066,1.92,2.051,2.051,0,0,0,1.721.835h.717v4.6c0,3.923.03,4.62.2,4.762a.792.792,0,0,1,.2.54c0,.51.126.8.349.8.118,0,.186.147.186.4s.067.4.2.4c.11,0,.2.068.2.152a1.753,1.753,0,0,0,.795.784c.062,0,.147.091.189.2a.49.49,0,0,0,.438.2,1.071,1.071,0,0,1,.62.234c.219.2.532.234,2.06.234,1.562,0,1.825-.031,1.972-.234.121-.164.355-.234.792-.234.462,0,.62-.051.62-.2,0-.132.133-.2.395-.2a.685.685,0,0,0,.5-.167c.24-.375.976-.508.976-.176,0,.631.343.744,2.236.744,1.429,0,1.76-.036,1.823-.2a.444.444,0,0,1,.4-.2c.541,0,.759-1.96.233-2.1a.5.5,0,0,1-.322-.322c-.053-.2-.189-.255-.68-.255h-.614V73.08c0-4.688-.04-6.3-.16-6.417a11.271,11.271,0,0,0-3.075-.16h-2.915v.4c0,.259-.067.4-.191.4-.106,0-.23.122-.278.27-.123.387.055,1.067.279,1.067a.2.2,0,0,1,.189.2.188.188,0,0,0,.168.2.539.539,0,0,1,.335.267c.147.235.312.267,1.369.267h1.2v3.878a33.763,33.763,0,0,1-.112,3.877c-.062,0-.181.151-.265.335a.526.526,0,0,1-.421.334.59.59,0,0,0-.436.268.543.543,0,0,1-.335.267.187.187,0,0,0-.168.2c0,.134-.134.2-.405.2-.237,0-.437.083-.482.2a.485.485,0,0,1-.434.2,1.363,1.363,0,0,0-.663.214,4.143,4.143,0,0,1-2.755.012.76.76,0,0,0-.418-.226.186.186,0,0,1-.191-.18.782.782,0,0,0-.265-.42c-.258-.233-.267-.444-.3-6.2l-.035-5.963-2.54-.033c-2.524-.033-2.542-.03-2.841.286m38.871,2.02a1.17,1.17,0,0,0,.819.2c.495,0,.652.049.652.2,0,.12.165.237.4.284.221.044.4.163.4.264s.12.184.267.184.267.089.267.2a.2.2,0,0,0,.2.2.2.2,0,0,1,.2.205.331.331,0,0,0,.2.282.315.315,0,0,1,.2.263.194.194,0,0,0,.2.186.234.234,0,0,1,.2.257c0,.4.144.679.349.679.15,0,.186.351.186,1.8,0,1.716-.013,1.8-.267,1.8a.234.234,0,0,0-.268.251.618.618,0,0,1-.2.417.621.621,0,0,0-.2.417.23.23,0,0,1-.2.251.2.2,0,0,0-.2.2.2.2,0,0,1-.2.2.331.331,0,0,0-.282.2.316.316,0,0,1-.263.2.193.193,0,0,0-.186.2c0,.13-.191.229-.546.286-.3.048-.578.169-.616.27a5.146,5.146,0,0,1-2.9-.019c-.045-.117-.245-.2-.482-.2-.258,0-.405-.068-.405-.188,0-.1-.18-.25-.4-.327s-.4-.2-.4-.28-.12-.141-.267-.141a.234.234,0,0,1-.268-.251.618.618,0,0,0-.2-.417.621.621,0,0,1-.2-.417c0-.139-.083-.251-.183-.251-.119,0-.214-.232-.27-.655a1.659,1.659,0,0,0-.285-.818,1.732,1.732,0,0,1-.009-1.593,1.708,1.708,0,0,0,.28-.818c.06-.436.155-.662.279-.662s.188-.145.188-.4.067-.4.2-.4c.111,0,.2-.119.2-.267a.237.237,0,0,1,.268-.268c.148,0,.267-.089.267-.2a.194.194,0,0,1,.186-.2.315.315,0,0,0,.263-.2.457.457,0,0,1,.411-.2.553.553,0,0,0,.477-.267c.116-.217.28-.267.859-.267.513,0,.738-.057.793-.2.043-.111.132-.2.2-.2a.531.531,0,0,1,.288.2m31.418,0c.108.131.406.2.856.2.524,0,.744.064.918.267a.771.771,0,0,0,.481.267.623.623,0,0,1,.419.2.556.556,0,0,0,.355.2.317.317,0,0,1,.265.2.37.37,0,0,0,.331.2.235.235,0,0,1,.253.268c0,.148.089.267.2.267a.235.235,0,0,1,.2.257.742.742,0,0,0,.194.452,1.41,1.41,0,0,1,.285.555.69.69,0,0,0,.274.432c.129.049.184.324.184.925,0,.719.037.857.234.87.222.014.222.018,0,.076-.193.051-.234.215-.234.921,0,.645-.047.859-.186.859-.2,0-.349.281-.349.679a.234.234,0,0,1-.2.256.2.2,0,0,0-.2.187.317.317,0,0,1-.2.263.465.465,0,0,0-.2.419c0,.271-.081.358-.392.42a.687.687,0,0,0-.464.264.317.317,0,0,1-.276.185.2.2,0,0,0-.2.2c0,.13-.131.2-.371.2a1.423,1.423,0,0,0-.692.225A6.316,6.316,0,0,1,284,79.556a1.034,1.034,0,0,0-.6-.219c-.229,0-.358-.072-.358-.2s-.127-.2-.339-.2a.459.459,0,0,1-.415-.2.307.307,0,0,0-.248-.2c-.094,0-.2-.12-.241-.267s-.16-.268-.269-.268-.236-.15-.282-.334-.143-.335-.215-.335-.131-.144-.131-.32a.442.442,0,0,0-.2-.4c-.116-.044-.2-.244-.2-.471,0-.529-.124-.817-.349-.817-.318,0-.252-1.539.081-1.871a1.065,1.065,0,0,0,.268-.74c0-.3.075-.5.2-.549s.2-.243.2-.464c0-.254.068-.387.2-.387a.2.2,0,0,0,.2-.2.207.207,0,0,1,.213-.2.343.343,0,0,0,.283-.267c.039-.148.153-.268.255-.268a.193.193,0,0,0,.184-.2.2.2,0,0,1,.2-.2.2.2,0,0,0,.2-.2c0-.14.141-.2.469-.2a.893.893,0,0,0,.7-.267c.168-.2.394-.267.851-.267a1.132,1.132,0,0,0,.789-.2.279.279,0,0,1,.535,0m-89.222,6.283c.044.115.243.2.464.2h.387V76.3c0,.956-.128,1.3-.488,1.3-.215,0-.849.586-.849.785,0,.083-.12.152-.268.152s-.267.089-.267.2q0,.2-.4.2t-.4.2c0,.137-.138.2-.438.2a1.518,1.518,0,0,0-.747.217,6.844,6.844,0,0,1-3.6.01.878.878,0,0,0-.473-.226.213.213,0,0,1-.223-.2.2.2,0,0,0-.2-.2.2.2,0,0,1-.2-.2.2.2,0,0,0-.2-.2c-.154,0-.2-.171-.2-.736s.047-.735.2-.735c.124,0,.2-.126.2-.333,0-.253.111-.379.468-.528.258-.107.468-.258.468-.336s.091-.14.2-.14a.2.2,0,0,0,.2-.2c0-.152.164-.2.669-.2s.668-.049.668-.2c0-.171.364-.2,2.478-.2,2.078,0,2.49.032,2.554.2m-89.683,45.222c3.185.02,8.359.02,11.5,0s.532-.036-5.792-.036-8.891.016-5.7.036"
        transform="translate(-0.821 -0.725)"
    />
    <path
        d="M86.657,34.452a.335.335,0,0,0-.134.33c.035.163.085.135.2-.116a1.73,1.73,0,0,0,.134-.33,1.635,1.635,0,0,0-.2.116m.648,2.247a.813.813,0,0,0,.267.375c.148.133.268.212.268.175a1.487,1.487,0,0,0-.268-.375c-.147-.169-.267-.248-.267-.175m52.622,2.236a.523.523,0,0,0,.262.263c.156.059.16.026.024-.191-.189-.3-.394-.354-.286-.072M88.744,39.1c.092.038.134.123.093.189s.018.085.132.042c.258-.1.137-.322-.168-.308-.14.006-.162.036-.058.078m52.039,1.167a.32.32,0,0,0,.2.265c.166.063.177.029.062-.186-.166-.31-.266-.339-.266-.079M90.072,41.412c.04.152.125.275.19.275.18,0,.141-.216-.072-.392-.156-.129-.176-.108-.118.117m2.6,4.458a.327.327,0,0,0,.185.314.306.306,0,0,1,.2.243.79.79,0,0,0,.267.407c.241.217.267.22.267.02a.206.206,0,0,0-.186-.221c-.1,0-.224-.153-.271-.34s-.139-.306-.2-.266-.148-.032-.181-.162c-.059-.222-.063-.222-.077,0m53.862,3.685a.9.9,0,0,0,.268.421c.18.18.267.209.267.087a.786.786,0,0,0-.267-.421c-.152-.137-.268-.176-.268-.087M97.6,54.284c0,.244.237.446.369.314.046-.046-.018-.185-.143-.31-.209-.209-.226-.209-.226,0m53.948,3.307c-.113.183-.013.321.185.253.08-.027.091-.122.025-.229-.083-.134-.138-.14-.21-.024m159.231,1.255c-.193.141-.208.2-.071.288.115.071.142.056.079-.047s-.012-.154.105-.154a.361.361,0,0,0,.283-.134c.119-.191-.107-.164-.4.047m3.805.087c-.163.1-.156.134.042.21.282.108.379.04.247-.173-.062-.1-.167-.113-.29-.037m14.377.41c.048.079-.038.176-.193.217s-.281.126-.281.191c0,.212.214.125.534-.216.269-.286.281-.335.083-.335-.13,0-.193.063-.144.143m4.874.044a.3.3,0,0,0,.185.257c.131.051.166-.006.119-.186-.078-.3-.3-.349-.3-.071m-233.079.271c.079.207.453.4.453.233a.67.67,0,0,0-.424-.424c-.056,0-.07.085-.03.19m208.212,1.206a.353.353,0,0,0,.134.275c.074.046.134-.041.134-.193s-.06-.275-.134-.275-.134.087-.134.193m18.734.6a.276.276,0,0,0-.123.3c.043.127.11.091.221-.118.178-.333.168-.35-.1-.18m3.058.08c-.136.164-.128.2.051.2a.21.21,0,0,0,.217-.2c0-.111-.022-.2-.051-.2a.706.706,0,0,0-.217.2m-19.371.184c-.175.135-.266.273-.2.306s.252-.078.415-.249c.353-.369.233-.4-.214-.058m-157.186.3c.052.268.35.287.347.023,0-.189-.028-.2-.118-.063s-.137.136-.189.03-.063-.1-.041.01m168.268.046c-.093.112-.108.2-.033.2a.535.535,0,0,0,.3-.2c.093-.112.107-.2.033-.2a.531.531,0,0,0-.3.2m-10.027.319c0,.091-.056.13-.124.087a.154.154,0,0,0-.209.059c-.047.075.006.136.116.136.225,0,.42-.242.3-.366-.044-.044-.08-.006-.08.083m20.214.262c-.139.088-.132.145.034.282s.207.129.207-.112c0-.32,0-.321-.241-.17m-2.518,1.691c0,.736.022,1.019.05.631a10.911,10.911,0,0,0,0-1.337c-.027-.347-.05-.029-.049.707m-13.815.354a.323.323,0,0,0,.185.292.55.55,0,0,1,.25.382c.055.29.06.291.077.023a1.05,1.05,0,0,0-.245-.6c-.207-.248-.264-.269-.267-.1m-159.917.742a1.165,1.165,0,0,0,.284.375c.229.141.145-.066-.151-.374l-.284-.3.151.294m169.975.05c-.01.142.037.258.106.258.152,0,.168-.359.019-.451-.058-.036-.115.051-.125.193m6.3.144c-.318.408-.357.742-.048.411.157-.168.264-.37.237-.449s-.1-.077-.189.039m-14.087.306c0,.124.055.191.123.149s.152,0,.19.093.071.111.078.017a.488.488,0,0,0-.19-.317c-.164-.137-.2-.127-.2.058m7.772.9a.979.979,0,0,1-.075.517c-.094.162-.082.169.063.035.231-.215.3-.666.115-.779-.09-.055-.128.029-.1.227m4.353.107c.04.152.125.275.19.275.18,0,.141-.216-.072-.392-.156-.129-.176-.108-.118.117M319.53,68.462a2.815,2.815,0,0,0,.4.477c.221.231.4.345.394.253-.006-.148-.795-.872-.795-.731M160.133,71.5a1.991,1.991,0,0,0,.253.267.761.761,0,0,0-.046-.267c-.038-.148-.152-.268-.253-.268-.14,0-.13.063.046.268m2.845,4.617c0,.23.248.525.351.423.055-.055,0-.2-.127-.326s-.225-.168-.224-.1m-51.985.939c.047.229.279.286.346.086.023-.071-.055-.164-.173-.21-.149-.057-.2-.018-.172.124m54.762,4.336c-.047.317-.022.367.119.249.2-.168.233-.465.059-.573-.066-.04-.145.105-.177.323m-1.689,3.3c-.214.233-.154.344.1.187a.24.24,0,0,0,.13-.247c-.029-.079-.126-.054-.23.06M105.15,96.11c-.127.4-.022.429.159.047.084-.179.1-.325.042-.325s-.152.125-.2.278m-8.209,16.221c-.107.129-.112.217-.016.276.077.047.144.067.15.045.13-.524.1-.6-.134-.321m51.936-.064a.155.155,0,0,0,.243.184c.128-.128.1-.309-.04-.309a.276.276,0,0,0-.2.124M94.591,116.8c.036.036-.009.156-.1.267-.144.176-.128.181.135.041.344-.183.4-.373.1-.373-.111,0-.171.029-.135.065m-.952,1.826c-.113.294.011.386.205.152.109-.132.115-.219.018-.279-.078-.048-.179.01-.224.128m-.862,1.574c-.115.375-.084.5.086.36.1-.086.156-.21.116-.275-.07-.111-.179-.158-.2-.085m-.462,1.043c-.128.205.047.339.218.167.1-.1.1-.171.007-.228a.166.166,0,0,0-.225.061m-.8,1.731c-.133.148-.175.268-.092.268s.214-.12.293-.268.12-.267.092-.267a1.245,1.245,0,0,0-.293.267m49.941,2.935a.348.348,0,0,1-.292.063.139.139,0,0,0-.179.072c-.054.087-4.133.135-11.664.138-6.371,0-11.613.035-11.651.072s5.261.064,11.773.06c11.586-.008,11.845-.014,12.077-.27.258-.285.238-.326-.065-.135m-50.809.207c.146.176,1.814.2,13.536.2,12.273,0,13.354-.018,13.191-.215-.112-.135-.2-.16-.228-.067-.067.2-26.042.213-26.165.015a.372.372,0,0,0-.291-.134c-.171,0-.179.037-.043.2"
        transform="translate(-17.117 -6.793)"
    />
    <path
        d="M396.892,71.494c0,.625.022.881.051.568a7.68,7.68,0,0,0,0-1.137c-.028-.312-.051-.057-.051.569"
        transform="translate(-78.522 -14.006)"
    />
</svg>
        